<mxfile host="app.diagrams.net" modified="2024-04-21T02:36:41.729Z" agent="Mozilla/5.0 (Windows NT 10.0; Win64; x64) AppleWebKit/537.36 (KHTML, like Gecko) Chrome/124.0.0.0 Safari/537.36" etag="Njv7LUbGOv5TdsKA-Axo" version="24.2.7" type="device">
  <diagram id="C5RBs43oDa-KdzZeNtuy" name="Page-1">
    <mxGraphModel dx="3452" dy="3846" grid="1" gridSize="10" guides="1" tooltips="1" connect="1" arrows="1" fold="1" page="1" pageScale="1" pageWidth="827" pageHeight="1169" math="0" shadow="0">
      <root>
        <mxCell id="WIyWlLk6GJQsqaUBKTNV-0" />
        <mxCell id="WIyWlLk6GJQsqaUBKTNV-1" parent="WIyWlLk6GJQsqaUBKTNV-0" />
        <mxCell id="yHp5LiDb8gGWvMPch4RD-46" value="&lt;&lt;Abstract&gt;&gt;&#xa;UsuarioÂ " style="swimlane;fontStyle=2;align=center;verticalAlign=top;childLayout=stackLayout;horizontal=1;startSize=40;horizontalStack=0;resizeParent=1;resizeLast=0;collapsible=1;marginBottom=0;rounded=0;shadow=0;strokeWidth=1;" parent="WIyWlLk6GJQsqaUBKTNV-1" vertex="1">
          <mxGeometry x="90" y="-1430" width="170" height="210" as="geometry">
            <mxRectangle x="230" y="140" width="160" height="26" as="alternateBounds" />
          </mxGeometry>
        </mxCell>
        <mxCell id="TQqstQnLtYKJAVKOR6ky-1" value="Nombre: String" style="text;align=left;verticalAlign=top;spacingLeft=4;spacingRight=4;overflow=hidden;rotatable=0;points=[[0,0.5],[1,0.5]];portConstraint=eastwest;rounded=0;shadow=0;html=0;" parent="yHp5LiDb8gGWvMPch4RD-46" vertex="1">
          <mxGeometry y="40" width="170" height="26" as="geometry" />
        </mxCell>
        <mxCell id="yHp5LiDb8gGWvMPch4RD-47" value="ID: int" style="text;align=left;verticalAlign=top;spacingLeft=4;spacingRight=4;overflow=hidden;rotatable=0;points=[[0,0.5],[1,0.5]];portConstraint=eastwest;" parent="yHp5LiDb8gGWvMPch4RD-46" vertex="1">
          <mxGeometry y="66" width="170" height="26" as="geometry" />
        </mxCell>
        <mxCell id="yHp5LiDb8gGWvMPch4RD-50" value="pasword: String" style="text;align=left;verticalAlign=top;spacingLeft=4;spacingRight=4;overflow=hidden;rotatable=0;points=[[0,0.5],[1,0.5]];portConstraint=eastwest;rounded=0;shadow=0;html=0;" parent="yHp5LiDb8gGWvMPch4RD-46" vertex="1">
          <mxGeometry y="92" width="170" height="26" as="geometry" />
        </mxCell>
        <mxCell id="yHp5LiDb8gGWvMPch4RD-51" value="" style="line;html=1;strokeWidth=1;align=left;verticalAlign=middle;spacingTop=-1;spacingLeft=3;spacingRight=3;rotatable=0;labelPosition=right;points=[];portConstraint=eastwest;" parent="yHp5LiDb8gGWvMPch4RD-46" vertex="1">
          <mxGeometry y="118" width="170" height="8" as="geometry" />
        </mxCell>
        <mxCell id="TQqstQnLtYKJAVKOR6ky-4" value="Set/getNomrbre()" style="text;align=left;verticalAlign=top;spacingLeft=4;spacingRight=4;overflow=hidden;rotatable=0;points=[[0,0.5],[1,0.5]];portConstraint=eastwest;" parent="yHp5LiDb8gGWvMPch4RD-46" vertex="1">
          <mxGeometry y="126" width="170" height="26" as="geometry" />
        </mxCell>
        <mxCell id="TQqstQnLtYKJAVKOR6ky-5" value="Set/getId()" style="text;align=left;verticalAlign=top;spacingLeft=4;spacingRight=4;overflow=hidden;rotatable=0;points=[[0,0.5],[1,0.5]];portConstraint=eastwest;" parent="yHp5LiDb8gGWvMPch4RD-46" vertex="1">
          <mxGeometry y="152" width="170" height="26" as="geometry" />
        </mxCell>
        <mxCell id="TQqstQnLtYKJAVKOR6ky-3" value="Set/getcontrasenia()" style="text;align=left;verticalAlign=top;spacingLeft=4;spacingRight=4;overflow=hidden;rotatable=0;points=[[0,0.5],[1,0.5]];portConstraint=eastwest;" parent="yHp5LiDb8gGWvMPch4RD-46" vertex="1">
          <mxGeometry y="178" width="170" height="26" as="geometry" />
        </mxCell>
        <mxCell id="yHp5LiDb8gGWvMPch4RD-53" value="Administrador" style="swimlane;fontStyle=0;align=center;verticalAlign=top;childLayout=stackLayout;horizontal=1;startSize=26;horizontalStack=0;resizeParent=1;resizeLast=0;collapsible=1;marginBottom=0;rounded=0;shadow=0;strokeWidth=1;fillColor=#d5e8d4;strokeColor=#82b366;" parent="WIyWlLk6GJQsqaUBKTNV-1" vertex="1">
          <mxGeometry x="-320" y="-1169" width="250" height="340" as="geometry">
            <mxRectangle x="130" y="380" width="160" height="26" as="alternateBounds" />
          </mxGeometry>
        </mxCell>
        <mxCell id="yHp5LiDb8gGWvMPch4RD-54" value="verificado: boolean" style="text;align=left;verticalAlign=top;spacingLeft=4;spacingRight=4;overflow=hidden;rotatable=0;points=[[0,0.5],[1,0.5]];portConstraint=eastwest;" parent="yHp5LiDb8gGWvMPch4RD-53" vertex="1">
          <mxGeometry y="26" width="250" height="26" as="geometry" />
        </mxCell>
        <mxCell id="yHp5LiDb8gGWvMPch4RD-56" value="" style="line;html=1;strokeWidth=1;align=left;verticalAlign=middle;spacingTop=-1;spacingLeft=3;spacingRight=3;rotatable=0;labelPosition=right;points=[];portConstraint=eastwest;" parent="yHp5LiDb8gGWvMPch4RD-53" vertex="1">
          <mxGeometry y="52" width="250" height="38" as="geometry" />
        </mxCell>
        <mxCell id="ilfk3USVHJTjclYqwWFc-7" value="agregarObjetoAlInventario(Pieza Objeto)&#xa;&#xa;" style="text;align=left;verticalAlign=top;spacingLeft=4;spacingRight=4;overflow=hidden;rotatable=0;points=[[0,0.5],[1,0.5]];portConstraint=eastwest;" parent="yHp5LiDb8gGWvMPch4RD-53" vertex="1">
          <mxGeometry y="90" width="250" height="40" as="geometry" />
        </mxCell>
        <mxCell id="ilfk3USVHJTjclYqwWFc-17" value="modificarObjetoEnInventario(nombreObjeto)" style="text;align=left;verticalAlign=top;spacingLeft=4;spacingRight=4;overflow=hidden;rotatable=0;points=[[0,0.5],[1,0.5]];portConstraint=eastwest;" parent="yHp5LiDb8gGWvMPch4RD-53" vertex="1">
          <mxGeometry y="130" width="250" height="40" as="geometry" />
        </mxCell>
        <mxCell id="ilfk3USVHJTjclYqwWFc-18" value="EliminarPieza(Pieza objeto)" style="text;align=left;verticalAlign=top;spacingLeft=4;spacingRight=4;overflow=hidden;rotatable=0;points=[[0,0.5],[1,0.5]];portConstraint=eastwest;" parent="yHp5LiDb8gGWvMPch4RD-53" vertex="1">
          <mxGeometry y="170" width="250" height="40" as="geometry" />
        </mxCell>
        <mxCell id="ilfk3USVHJTjclYqwWFc-19" value="&#xa;ConsultarInventario(Pieza objeto)" style="text;align=left;verticalAlign=top;spacingLeft=4;spacingRight=4;overflow=hidden;rotatable=0;points=[[0,0.5],[1,0.5]];portConstraint=eastwest;" parent="yHp5LiDb8gGWvMPch4RD-53" vertex="1">
          <mxGeometry y="210" width="250" height="50" as="geometry" />
        </mxCell>
        <mxCell id="ilfk3USVHJTjclYqwWFc-21" value="RegistrarPujas()" style="text;align=left;verticalAlign=top;spacingLeft=4;spacingRight=4;overflow=hidden;rotatable=0;points=[[0,0.5],[1,0.5]];portConstraint=eastwest;" parent="yHp5LiDb8gGWvMPch4RD-53" vertex="1">
          <mxGeometry y="260" width="250" height="40" as="geometry" />
        </mxCell>
        <mxCell id="ilfk3USVHJTjclYqwWFc-20" value="AprobarPago()" style="text;align=left;verticalAlign=top;spacingLeft=4;spacingRight=4;overflow=hidden;rotatable=0;points=[[0,0.5],[1,0.5]];portConstraint=eastwest;" parent="yHp5LiDb8gGWvMPch4RD-53" vertex="1">
          <mxGeometry y="300" width="250" height="40" as="geometry" />
        </mxCell>
        <mxCell id="yHp5LiDb8gGWvMPch4RD-59" value="Comprador" style="swimlane;fontStyle=0;align=center;verticalAlign=top;childLayout=stackLayout;horizontal=1;startSize=26;horizontalStack=0;resizeParent=1;resizeLast=0;collapsible=1;marginBottom=0;rounded=0;shadow=0;strokeWidth=1;fillColor=#d5e8d4;strokeColor=#82b366;" parent="WIyWlLk6GJQsqaUBKTNV-1" vertex="1">
          <mxGeometry x="320" y="-770" width="160" height="150" as="geometry">
            <mxRectangle x="340" y="380" width="170" height="26" as="alternateBounds" />
          </mxGeometry>
        </mxCell>
        <mxCell id="yHp5LiDb8gGWvMPch4RD-60" value="verificacion: boolean" style="text;align=left;verticalAlign=top;spacingLeft=4;spacingRight=4;overflow=hidden;rotatable=0;points=[[0,0.5],[1,0.5]];portConstraint=eastwest;" parent="yHp5LiDb8gGWvMPch4RD-59" vertex="1">
          <mxGeometry y="26" width="160" height="26" as="geometry" />
        </mxCell>
        <mxCell id="n8hrpAmNtIxC3Bg8Zhbz-0" value="dinero: int" style="text;align=left;verticalAlign=top;spacingLeft=4;spacingRight=4;overflow=hidden;rotatable=0;points=[[0,0.5],[1,0.5]];portConstraint=eastwest;" parent="yHp5LiDb8gGWvMPch4RD-59" vertex="1">
          <mxGeometry y="52" width="160" height="26" as="geometry" />
        </mxCell>
        <mxCell id="T9J1k0kJC5R4wE0G7LZG-33" value="infoCompras: String" style="text;align=left;verticalAlign=top;spacingLeft=4;spacingRight=4;overflow=hidden;rotatable=0;points=[[0,0.5],[1,0.5]];portConstraint=eastwest;" parent="yHp5LiDb8gGWvMPch4RD-59" vertex="1">
          <mxGeometry y="78" width="160" height="26" as="geometry" />
        </mxCell>
        <mxCell id="yHp5LiDb8gGWvMPch4RD-61" value="" style="line;html=1;strokeWidth=1;align=left;verticalAlign=middle;spacingTop=-1;spacingLeft=3;spacingRight=3;rotatable=0;labelPosition=right;points=[];portConstraint=eastwest;" parent="yHp5LiDb8gGWvMPch4RD-59" vertex="1">
          <mxGeometry y="104" width="160" height="8" as="geometry" />
        </mxCell>
        <mxCell id="ilfk3USVHJTjclYqwWFc-9" value="ComprarPiezas()&#xa;Vercartera()" style="text;align=left;verticalAlign=top;spacingLeft=4;spacingRight=4;overflow=hidden;rotatable=0;points=[[0,0.5],[1,0.5]];portConstraint=eastwest;" parent="yHp5LiDb8gGWvMPch4RD-59" vertex="1">
          <mxGeometry y="112" width="160" height="38" as="geometry" />
        </mxCell>
        <mxCell id="ilfk3USVHJTjclYqwWFc-112" style="edgeStyle=elbowEdgeStyle;rounded=0;orthogonalLoop=1;jettySize=auto;html=1;elbow=vertical;strokeColor=#33ff33;" parent="WIyWlLk6GJQsqaUBKTNV-1" source="yHp5LiDb8gGWvMPch4RD-62" target="T9J1k0kJC5R4wE0G7LZG-34" edge="1">
          <mxGeometry relative="1" as="geometry">
            <Array as="points">
              <mxPoint x="430" y="-570" />
            </Array>
          </mxGeometry>
        </mxCell>
        <mxCell id="ilfk3USVHJTjclYqwWFc-113" value="1" style="edgeLabel;html=1;align=center;verticalAlign=middle;resizable=0;points=[];" parent="ilfk3USVHJTjclYqwWFc-112" vertex="1" connectable="0">
          <mxGeometry x="0.9451" relative="1" as="geometry">
            <mxPoint as="offset" />
          </mxGeometry>
        </mxCell>
        <mxCell id="ilfk3USVHJTjclYqwWFc-114" value="1" style="edgeLabel;html=1;align=center;verticalAlign=middle;resizable=0;points=[];" parent="ilfk3USVHJTjclYqwWFc-112" vertex="1" connectable="0">
          <mxGeometry x="-0.9501" relative="1" as="geometry">
            <mxPoint as="offset" />
          </mxGeometry>
        </mxCell>
        <mxCell id="yHp5LiDb8gGWvMPch4RD-62" value="&lt;&lt;Abstract&gt;&gt;&#xa;PiezaÂ " style="swimlane;fontStyle=2;align=center;verticalAlign=top;childLayout=stackLayout;horizontal=1;startSize=40;horizontalStack=0;resizeParent=1;resizeLast=0;collapsible=1;marginBottom=0;rounded=0;shadow=0;strokeWidth=1;" parent="WIyWlLk6GJQsqaUBKTNV-1" vertex="1">
          <mxGeometry x="607" y="-516" width="220" height="346" as="geometry">
            <mxRectangle x="550" y="140" width="160" height="26" as="alternateBounds" />
          </mxGeometry>
        </mxCell>
        <mxCell id="yHp5LiDb8gGWvMPch4RD-87" value="titulo: String" style="text;align=left;verticalAlign=top;spacingLeft=4;spacingRight=4;overflow=hidden;rotatable=0;points=[[0,0.5],[1,0.5]];portConstraint=eastwest;" parent="yHp5LiDb8gGWvMPch4RD-62" vertex="1">
          <mxGeometry y="40" width="220" height="26" as="geometry" />
        </mxCell>
        <mxCell id="TQqstQnLtYKJAVKOR6ky-12" value="anio: int" style="text;align=left;verticalAlign=top;spacingLeft=4;spacingRight=4;overflow=hidden;rotatable=0;points=[[0,0.5],[1,0.5]];portConstraint=eastwest;" parent="yHp5LiDb8gGWvMPch4RD-62" vertex="1">
          <mxGeometry y="66" width="220" height="26" as="geometry" />
        </mxCell>
        <mxCell id="TQqstQnLtYKJAVKOR6ky-9" value="autor: Array de Strings" style="text;align=left;verticalAlign=top;spacingLeft=4;spacingRight=4;overflow=hidden;rotatable=0;points=[[0,0.5],[1,0.5]];portConstraint=eastwest;" parent="yHp5LiDb8gGWvMPch4RD-62" vertex="1">
          <mxGeometry y="92" width="220" height="26" as="geometry" />
        </mxCell>
        <mxCell id="TQqstQnLtYKJAVKOR6ky-11" value="lugarCreacion: String" style="text;align=left;verticalAlign=top;spacingLeft=4;spacingRight=4;overflow=hidden;rotatable=0;points=[[0,0.5],[1,0.5]];portConstraint=eastwest;" parent="yHp5LiDb8gGWvMPch4RD-62" vertex="1">
          <mxGeometry y="118" width="220" height="26" as="geometry" />
        </mxCell>
        <mxCell id="TQqstQnLtYKJAVKOR6ky-7" value="disponibilidadVenta: boolean" style="text;align=left;verticalAlign=top;spacingLeft=4;spacingRight=4;overflow=hidden;rotatable=0;points=[[0,0.5],[1,0.5]];portConstraint=eastwest;" parent="yHp5LiDb8gGWvMPch4RD-62" vertex="1">
          <mxGeometry y="144" width="220" height="26" as="geometry" />
        </mxCell>
        <mxCell id="yHp5LiDb8gGWvMPch4RD-70" value="propietariosAnteriores: Array de String" style="text;align=left;verticalAlign=top;spacingLeft=4;spacingRight=4;overflow=hidden;rotatable=0;points=[[0,0.5],[1,0.5]];portConstraint=eastwest;" parent="yHp5LiDb8gGWvMPch4RD-62" vertex="1">
          <mxGeometry y="170" width="220" height="26" as="geometry" />
        </mxCell>
        <mxCell id="TQqstQnLtYKJAVKOR6ky-6" value="propietarioActual: String" style="text;align=left;verticalAlign=top;spacingLeft=4;spacingRight=4;overflow=hidden;rotatable=0;points=[[0,0.5],[1,0.5]];portConstraint=eastwest;" parent="yHp5LiDb8gGWvMPch4RD-62" vertex="1">
          <mxGeometry y="196" width="220" height="26" as="geometry" />
        </mxCell>
        <mxCell id="TQqstQnLtYKJAVKOR6ky-17" value="ubicacionActual: String" style="text;align=left;verticalAlign=top;spacingLeft=4;spacingRight=4;overflow=hidden;rotatable=0;points=[[0,0.5],[1,0.5]];portConstraint=eastwest;" parent="yHp5LiDb8gGWvMPch4RD-62" vertex="1">
          <mxGeometry y="222" width="220" height="26" as="geometry" />
        </mxCell>
        <mxCell id="yHp5LiDb8gGWvMPch4RD-69" value="" style="line;html=1;strokeWidth=1;align=left;verticalAlign=middle;spacingTop=-1;spacingLeft=3;spacingRight=3;rotatable=0;labelPosition=right;points=[];portConstraint=eastwest;" parent="yHp5LiDb8gGWvMPch4RD-62" vertex="1">
          <mxGeometry y="248" width="220" height="8" as="geometry" />
        </mxCell>
        <mxCell id="TQqstQnLtYKJAVKOR6ky-21" value="Setters/Getters()" style="text;align=left;verticalAlign=top;spacingLeft=4;spacingRight=4;overflow=hidden;rotatable=0;points=[[0,0.5],[1,0.5]];portConstraint=eastwest;" parent="yHp5LiDb8gGWvMPch4RD-62" vertex="1">
          <mxGeometry y="256" width="220" height="26" as="geometry" />
        </mxCell>
        <mxCell id="ilfk3USVHJTjclYqwWFc-107" value="fromCSV()" style="text;align=left;verticalAlign=top;spacingLeft=4;spacingRight=4;overflow=hidden;rotatable=0;points=[[0,0.5],[1,0.5]];portConstraint=eastwest;" parent="yHp5LiDb8gGWvMPch4RD-62" vertex="1">
          <mxGeometry y="282" width="220" height="26" as="geometry" />
        </mxCell>
        <mxCell id="ilfk3USVHJTjclYqwWFc-108" value="toCSV()" style="text;align=left;verticalAlign=top;spacingLeft=4;spacingRight=4;overflow=hidden;rotatable=0;points=[[0,0.5],[1,0.5]];portConstraint=eastwest;" parent="yHp5LiDb8gGWvMPch4RD-62" vertex="1">
          <mxGeometry y="308" width="220" height="26" as="geometry" />
        </mxCell>
        <mxCell id="yHp5LiDb8gGWvMPch4RD-80" value="Subasta" style="swimlane;fontStyle=0;align=center;verticalAlign=top;childLayout=stackLayout;horizontal=1;startSize=26;horizontalStack=0;resizeParent=1;resizeLast=0;collapsible=1;marginBottom=0;rounded=0;shadow=0;strokeWidth=1;fillColor=#e1d5e7;strokeColor=#9673a6;" parent="WIyWlLk6GJQsqaUBKTNV-1" vertex="1">
          <mxGeometry x="-430" y="-460" width="290" height="372" as="geometry">
            <mxRectangle x="340" y="380" width="170" height="26" as="alternateBounds" />
          </mxGeometry>
        </mxCell>
        <mxCell id="yHp5LiDb8gGWvMPch4RD-81" value="valorMinimo: double" style="text;align=left;verticalAlign=top;spacingLeft=4;spacingRight=4;overflow=hidden;rotatable=0;points=[[0,0.5],[1,0.5]];portConstraint=eastwest;" parent="yHp5LiDb8gGWvMPch4RD-80" vertex="1">
          <mxGeometry y="26" width="290" height="26" as="geometry" />
        </mxCell>
        <mxCell id="T9J1k0kJC5R4wE0G7LZG-38" value="valorInicial: double" style="text;align=left;verticalAlign=top;spacingLeft=4;spacingRight=4;overflow=hidden;rotatable=0;points=[[0,0.5],[1,0.5]];portConstraint=eastwest;" parent="yHp5LiDb8gGWvMPch4RD-80" vertex="1">
          <mxGeometry y="52" width="290" height="26" as="geometry" />
        </mxCell>
        <mxCell id="T9J1k0kJC5R4wE0G7LZG-39" value="listaPiezas: (colectivoPiezas)" style="text;align=left;verticalAlign=top;spacingLeft=4;spacingRight=4;overflow=hidden;rotatable=0;points=[[0,0.5],[1,0.5]];portConstraint=eastwest;" parent="yHp5LiDb8gGWvMPch4RD-80" vertex="1">
          <mxGeometry y="78" width="290" height="26" as="geometry" />
        </mxCell>
        <mxCell id="T9J1k0kJC5R4wE0G7LZG-37" value="oferta: double" style="text;align=left;verticalAlign=top;spacingLeft=4;spacingRight=4;overflow=hidden;rotatable=0;points=[[0,0.5],[1,0.5]];portConstraint=eastwest;" parent="yHp5LiDb8gGWvMPch4RD-80" vertex="1">
          <mxGeometry y="104" width="290" height="26" as="geometry" />
        </mxCell>
        <mxCell id="T9J1k0kJC5R4wE0G7LZG-41" value="costoFinal: double" style="text;align=left;verticalAlign=top;spacingLeft=4;spacingRight=4;overflow=hidden;rotatable=0;points=[[0,0.5],[1,0.5]];portConstraint=eastwest;" parent="yHp5LiDb8gGWvMPch4RD-80" vertex="1">
          <mxGeometry y="130" width="290" height="26" as="geometry" />
        </mxCell>
        <mxCell id="B-XOrOqqEqMm-9fevjgR-23" value="numeroPostores: double" style="text;align=left;verticalAlign=top;spacingLeft=4;spacingRight=4;overflow=hidden;rotatable=0;points=[[0,0.5],[1,0.5]];portConstraint=eastwest;" parent="yHp5LiDb8gGWvMPch4RD-80" vertex="1">
          <mxGeometry y="156" width="290" height="26" as="geometry" />
        </mxCell>
        <mxCell id="T9J1k0kJC5R4wE0G7LZG-43" value="posiblesCompradores: Array de String" style="text;align=left;verticalAlign=top;spacingLeft=4;spacingRight=4;overflow=hidden;rotatable=0;points=[[0,0.5],[1,0.5]];portConstraint=eastwest;" parent="yHp5LiDb8gGWvMPch4RD-80" vertex="1">
          <mxGeometry y="182" width="290" height="26" as="geometry" />
        </mxCell>
        <mxCell id="yHp5LiDb8gGWvMPch4RD-82" value="" style="line;html=1;strokeWidth=1;align=left;verticalAlign=middle;spacingTop=-1;spacingLeft=3;spacingRight=3;rotatable=0;labelPosition=right;points=[];portConstraint=eastwest;" parent="yHp5LiDb8gGWvMPch4RD-80" vertex="1">
          <mxGeometry y="208" width="290" height="8" as="geometry" />
        </mxCell>
        <mxCell id="ilfk3USVHJTjclYqwWFc-61" value="AbrirSubasta(int numeroPostores)" style="text;align=left;verticalAlign=top;spacingLeft=4;spacingRight=4;overflow=hidden;rotatable=0;points=[[0,0.5],[1,0.5]];portConstraint=eastwest;" parent="yHp5LiDb8gGWvMPch4RD-80" vertex="1">
          <mxGeometry y="216" width="290" height="26" as="geometry" />
        </mxCell>
        <mxCell id="ilfk3USVHJTjclYqwWFc-62" value="registrarParticipante(Comprador comprador)" style="text;align=left;verticalAlign=top;spacingLeft=4;spacingRight=4;overflow=hidden;rotatable=0;points=[[0,0.5],[1,0.5]];portConstraint=eastwest;" parent="yHp5LiDb8gGWvMPch4RD-80" vertex="1">
          <mxGeometry y="242" width="290" height="26" as="geometry" />
        </mxCell>
        <mxCell id="ilfk3USVHJTjclYqwWFc-63" value="realizarOferta(Comprador comprador, double oferta)" style="text;align=left;verticalAlign=top;spacingLeft=4;spacingRight=4;overflow=hidden;rotatable=0;points=[[0,0.5],[1,0.5]];portConstraint=eastwest;" parent="yHp5LiDb8gGWvMPch4RD-80" vertex="1">
          <mxGeometry y="268" width="290" height="26" as="geometry" />
        </mxCell>
        <mxCell id="ilfk3USVHJTjclYqwWFc-64" value="terminarSubasta()" style="text;align=left;verticalAlign=top;spacingLeft=4;spacingRight=4;overflow=hidden;rotatable=0;points=[[0,0.5],[1,0.5]];portConstraint=eastwest;" parent="yHp5LiDb8gGWvMPch4RD-80" vertex="1">
          <mxGeometry y="294" width="290" height="26" as="geometry" />
        </mxCell>
        <mxCell id="ilfk3USVHJTjclYqwWFc-59" value="Get/setCostoFinal()" style="text;align=left;verticalAlign=top;spacingLeft=4;spacingRight=4;overflow=hidden;rotatable=0;points=[[0,0.5],[1,0.5]];portConstraint=eastwest;" parent="yHp5LiDb8gGWvMPch4RD-80" vertex="1">
          <mxGeometry y="320" width="290" height="26" as="geometry" />
        </mxCell>
        <mxCell id="ilfk3USVHJTjclYqwWFc-60" value="Get/setNumeroPostores()" style="text;align=left;verticalAlign=top;spacingLeft=4;spacingRight=4;overflow=hidden;rotatable=0;points=[[0,0.5],[1,0.5]];portConstraint=eastwest;" parent="yHp5LiDb8gGWvMPch4RD-80" vertex="1">
          <mxGeometry y="346" width="290" height="26" as="geometry" />
        </mxCell>
        <mxCell id="yHp5LiDb8gGWvMPch4RD-83" value="Venta" style="swimlane;fontStyle=0;align=center;verticalAlign=top;childLayout=stackLayout;horizontal=1;startSize=26;horizontalStack=0;resizeParent=1;resizeLast=0;collapsible=1;marginBottom=0;rounded=0;shadow=0;strokeWidth=1;fillColor=#e1d5e7;strokeColor=#9673a6;" parent="WIyWlLk6GJQsqaUBKTNV-1" vertex="1">
          <mxGeometry x="-40" y="-140" width="210" height="210" as="geometry">
            <mxRectangle x="340" y="380" width="170" height="26" as="alternateBounds" />
          </mxGeometry>
        </mxCell>
        <mxCell id="yHp5LiDb8gGWvMPch4RD-84" value="precio: (subasta)" style="text;align=left;verticalAlign=top;spacingLeft=4;spacingRight=4;overflow=hidden;rotatable=0;points=[[0,0.5],[1,0.5]];portConstraint=eastwest;" parent="yHp5LiDb8gGWvMPch4RD-83" vertex="1">
          <mxGeometry y="26" width="210" height="26" as="geometry" />
        </mxCell>
        <mxCell id="T9J1k0kJC5R4wE0G7LZG-42" value="esperaVenta: boolean" style="text;align=left;verticalAlign=top;spacingLeft=4;spacingRight=4;overflow=hidden;rotatable=0;points=[[0,0.5],[1,0.5]];portConstraint=eastwest;" parent="yHp5LiDb8gGWvMPch4RD-83" vertex="1">
          <mxGeometry y="52" width="210" height="26" as="geometry" />
        </mxCell>
        <mxCell id="T9J1k0kJC5R4wE0G7LZG-46" value="pieza: (Pieza/Titulo)" style="text;align=left;verticalAlign=top;spacingLeft=4;spacingRight=4;overflow=hidden;rotatable=0;points=[[0,0.5],[1,0.5]];portConstraint=eastwest;" parent="yHp5LiDb8gGWvMPch4RD-83" vertex="1">
          <mxGeometry y="78" width="210" height="26" as="geometry" />
        </mxCell>
        <mxCell id="T9J1k0kJC5R4wE0G7LZG-44" value="posiblesCompradores: (subasta)" style="text;align=left;verticalAlign=top;spacingLeft=4;spacingRight=4;overflow=hidden;rotatable=0;points=[[0,0.5],[1,0.5]];portConstraint=eastwest;" parent="yHp5LiDb8gGWvMPch4RD-83" vertex="1">
          <mxGeometry y="104" width="210" height="26" as="geometry" />
        </mxCell>
        <mxCell id="T9J1k0kJC5R4wE0G7LZG-45" value="pago: (Pago)" style="text;align=left;verticalAlign=top;spacingLeft=4;spacingRight=4;overflow=hidden;rotatable=0;points=[[0,0.5],[1,0.5]];portConstraint=eastwest;" parent="yHp5LiDb8gGWvMPch4RD-83" vertex="1">
          <mxGeometry y="130" width="210" height="26" as="geometry" />
        </mxCell>
        <mxCell id="B-XOrOqqEqMm-9fevjgR-69" value="descripcion: String" style="text;align=left;verticalAlign=top;spacingLeft=4;spacingRight=4;overflow=hidden;rotatable=0;points=[[0,0.5],[1,0.5]];portConstraint=eastwest;" parent="yHp5LiDb8gGWvMPch4RD-83" vertex="1">
          <mxGeometry y="156" width="210" height="26" as="geometry" />
        </mxCell>
        <mxCell id="yHp5LiDb8gGWvMPch4RD-85" value="" style="line;html=1;strokeWidth=1;align=left;verticalAlign=middle;spacingTop=-1;spacingLeft=3;spacingRight=3;rotatable=0;labelPosition=right;points=[];portConstraint=eastwest;" parent="yHp5LiDb8gGWvMPch4RD-83" vertex="1">
          <mxGeometry y="182" width="210" height="8" as="geometry" />
        </mxCell>
        <mxCell id="yHp5LiDb8gGWvMPch4RD-89" value="Pago" style="swimlane;fontStyle=0;align=center;verticalAlign=top;childLayout=stackLayout;horizontal=1;startSize=30;horizontalStack=0;resizeParent=1;resizeLast=0;collapsible=1;marginBottom=0;rounded=0;shadow=0;strokeWidth=1;fillColor=#e1d5e7;strokeColor=#9673a6;" parent="WIyWlLk6GJQsqaUBKTNV-1" vertex="1">
          <mxGeometry x="290" y="-440" width="180" height="246" as="geometry">
            <mxRectangle x="340" y="380" width="170" height="26" as="alternateBounds" />
          </mxGeometry>
        </mxCell>
        <mxCell id="yHp5LiDb8gGWvMPch4RD-90" value="tipoDePago: String" style="text;align=left;verticalAlign=top;spacingLeft=4;spacingRight=4;overflow=hidden;rotatable=0;points=[[0,0.5],[1,0.5]];portConstraint=eastwest;" parent="yHp5LiDb8gGWvMPch4RD-89" vertex="1">
          <mxGeometry y="30" width="180" height="26" as="geometry" />
        </mxCell>
        <mxCell id="T9J1k0kJC5R4wE0G7LZG-0" value="fechaDePago: Date" style="text;align=left;verticalAlign=top;spacingLeft=4;spacingRight=4;overflow=hidden;rotatable=0;points=[[0,0.5],[1,0.5]];portConstraint=eastwest;" parent="yHp5LiDb8gGWvMPch4RD-89" vertex="1">
          <mxGeometry y="56" width="180" height="26" as="geometry" />
        </mxCell>
        <mxCell id="B-XOrOqqEqMm-9fevjgR-68" value="devolucion: boolean" style="text;align=left;verticalAlign=top;spacingLeft=4;spacingRight=4;overflow=hidden;rotatable=0;points=[[0,0.5],[1,0.5]];portConstraint=eastwest;" parent="yHp5LiDb8gGWvMPch4RD-89" vertex="1">
          <mxGeometry y="82" width="180" height="26" as="geometry" />
        </mxCell>
        <mxCell id="T9J1k0kJC5R4wE0G7LZG-1" value="detalles: String" style="text;align=left;verticalAlign=top;spacingLeft=4;spacingRight=4;overflow=hidden;rotatable=0;points=[[0,0.5],[1,0.5]];portConstraint=eastwest;" parent="yHp5LiDb8gGWvMPch4RD-89" vertex="1">
          <mxGeometry y="108" width="180" height="26" as="geometry" />
        </mxCell>
        <mxCell id="yHp5LiDb8gGWvMPch4RD-91" value="" style="line;html=1;strokeWidth=1;align=left;verticalAlign=middle;spacingTop=-1;spacingLeft=3;spacingRight=3;rotatable=0;labelPosition=right;points=[];portConstraint=eastwest;" parent="yHp5LiDb8gGWvMPch4RD-89" vertex="1">
          <mxGeometry y="134" width="180" height="8" as="geometry" />
        </mxCell>
        <mxCell id="ilfk3USVHJTjclYqwWFc-65" value="Set/GetPrecio()" style="text;align=left;verticalAlign=top;spacingLeft=4;spacingRight=4;overflow=hidden;rotatable=0;points=[[0,0.5],[1,0.5]];portConstraint=eastwest;" parent="yHp5LiDb8gGWvMPch4RD-89" vertex="1">
          <mxGeometry y="142" width="180" height="26" as="geometry" />
        </mxCell>
        <mxCell id="ilfk3USVHJTjclYqwWFc-66" value="Is/SetEsperaVenta()" style="text;align=left;verticalAlign=top;spacingLeft=4;spacingRight=4;overflow=hidden;rotatable=0;points=[[0,0.5],[1,0.5]];portConstraint=eastwest;" parent="yHp5LiDb8gGWvMPch4RD-89" vertex="1">
          <mxGeometry y="168" width="180" height="26" as="geometry" />
        </mxCell>
        <mxCell id="ilfk3USVHJTjclYqwWFc-67" value="Set/GetPiezaTItulo()" style="text;align=left;verticalAlign=top;spacingLeft=4;spacingRight=4;overflow=hidden;rotatable=0;points=[[0,0.5],[1,0.5]];portConstraint=eastwest;" parent="yHp5LiDb8gGWvMPch4RD-89" vertex="1">
          <mxGeometry y="194" width="180" height="26" as="geometry" />
        </mxCell>
        <mxCell id="ilfk3USVHJTjclYqwWFc-68" value="Set/getPosiblesCompradores()" style="text;align=left;verticalAlign=top;spacingLeft=4;spacingRight=4;overflow=hidden;rotatable=0;points=[[0,0.5],[1,0.5]];portConstraint=eastwest;" parent="yHp5LiDb8gGWvMPch4RD-89" vertex="1">
          <mxGeometry y="220" width="180" height="26" as="geometry" />
        </mxCell>
        <mxCell id="T9J1k0kJC5R4wE0G7LZG-8" value="&lt;span style=&quot;font-weight: normal;&quot;&gt;Video&lt;/span&gt;" style="swimlane;fontStyle=1;align=center;verticalAlign=top;childLayout=stackLayout;horizontal=1;startSize=26;horizontalStack=0;resizeParent=1;resizeParentMax=0;resizeLast=0;collapsible=1;marginBottom=0;whiteSpace=wrap;html=1;fillColor=#dae8fc;strokeColor=#6c8ebf;" parent="WIyWlLk6GJQsqaUBKTNV-1" vertex="1">
          <mxGeometry x="1065" y="-310" width="160" height="138" as="geometry" />
        </mxCell>
        <mxCell id="T9J1k0kJC5R4wE0G7LZG-51" value="resolucion: String" style="text;strokeColor=none;fillColor=none;align=left;verticalAlign=top;spacingLeft=4;spacingRight=4;overflow=hidden;rotatable=0;points=[[0,0.5],[1,0.5]];portConstraint=eastwest;whiteSpace=wrap;html=1;" parent="T9J1k0kJC5R4wE0G7LZG-8" vertex="1">
          <mxGeometry y="26" width="160" height="26" as="geometry" />
        </mxCell>
        <mxCell id="T9J1k0kJC5R4wE0G7LZG-9" value="relacionImagen: String" style="text;strokeColor=none;fillColor=none;align=left;verticalAlign=top;spacingLeft=4;spacingRight=4;overflow=hidden;rotatable=0;points=[[0,0.5],[1,0.5]];portConstraint=eastwest;whiteSpace=wrap;html=1;" parent="T9J1k0kJC5R4wE0G7LZG-8" vertex="1">
          <mxGeometry y="52" width="160" height="26" as="geometry" />
        </mxCell>
        <mxCell id="T9J1k0kJC5R4wE0G7LZG-50" value="audio: boolean" style="text;strokeColor=none;fillColor=none;align=left;verticalAlign=top;spacingLeft=4;spacingRight=4;overflow=hidden;rotatable=0;points=[[0,0.5],[1,0.5]];portConstraint=eastwest;whiteSpace=wrap;html=1;" parent="T9J1k0kJC5R4wE0G7LZG-8" vertex="1">
          <mxGeometry y="78" width="160" height="26" as="geometry" />
        </mxCell>
        <mxCell id="T9J1k0kJC5R4wE0G7LZG-10" value="" style="line;strokeWidth=1;fillColor=none;align=left;verticalAlign=middle;spacingTop=-1;spacingLeft=3;spacingRight=3;rotatable=0;labelPosition=right;points=[];portConstraint=eastwest;strokeColor=inherit;" parent="T9J1k0kJC5R4wE0G7LZG-8" vertex="1">
          <mxGeometry y="104" width="160" height="8" as="geometry" />
        </mxCell>
        <mxCell id="tXUEc1l4zNeXvUGdgny_-90" value="Setters/Getters()" style="text;align=left;verticalAlign=top;spacingLeft=4;spacingRight=4;overflow=hidden;rotatable=0;points=[[0,0.5],[1,0.5]];portConstraint=eastwest;" vertex="1" parent="T9J1k0kJC5R4wE0G7LZG-8">
          <mxGeometry y="112" width="160" height="26" as="geometry" />
        </mxCell>
        <mxCell id="T9J1k0kJC5R4wE0G7LZG-12" value="&lt;span style=&quot;font-weight: normal;&quot;&gt;Impresion&lt;/span&gt;&lt;span style=&quot;color: rgba(0, 0, 0, 0); font-family: monospace; font-size: 0px; font-weight: 400; text-align: start; text-wrap: nowrap;&quot;&gt;%3CmxGraphModel%3E%3Croot%3E%3CmxCell%20id%3D%220%22%2F%3E%3CmxCell%20id%3D%221%22%20parent%3D%220%22%2F%3E%3CmxCell%20id%3D%222%22%20value%3D%22%26lt%3Bspan%20style%3D%26quot%3Bfont-weight%3A%20normal%3B%26quot%3B%26gt%3BPintura%26lt%3B%2Fspan%26gt%3B%22%20style%3D%22swimlane%3BfontStyle%3D1%3Balign%3Dcenter%3BverticalAlign%3Dtop%3BchildLayout%3DstackLayout%3Bhorizontal%3D1%3BstartSize%3D26%3BhorizontalStack%3D0%3BresizeParent%3D1%3BresizeParentMax%3D0%3BresizeLast%3D0%3Bcollapsible%3D1%3BmarginBottom%3D0%3BwhiteSpace%3Dwrap%3Bhtml%3D1%3B%22%20vertex%3D%221%22%20parent%3D%221%22%3E%3CmxGeometry%20x%3D%22440%22%20y%3D%22480%22%20width%3D%22160%22%20height%3D%2286%22%20as%3D%22geometry%22%2F%3E%3C%2FmxCell%3E%3CmxCell%20id%3D%223%22%20value%3D%22%2B%20field%3A%20type%22%20style%3D%22text%3BstrokeColor%3Dnone%3BfillColor%3Dnone%3Balign%3Dleft%3BverticalAlign%3Dtop%3BspacingLeft%3D4%3BspacingRight%3D4%3Boverflow%3Dhidden%3Brotatable%3D0%3Bpoints%3D%5B%5B0%2C0.5%5D%2C%5B1%2C0.5%5D%5D%3BportConstraint%3Deastwest%3BwhiteSpace%3Dwrap%3Bhtml%3D1%3B%22%20vertex%3D%221%22%20parent%3D%222%22%3E%3CmxGeometry%20y%3D%2226%22%20width%3D%22160%22%20height%3D%2226%22%20as%3D%22geometry%22%2F%3E%3C%2FmxCell%3E%3CmxCell%20id%3D%224%22%20value%3D%22%22%20style%3D%22line%3BstrokeWidth%3D1%3BfillColor%3Dnone%3Balign%3Dleft%3BverticalAlign%3Dmiddle%3BspacingTop%3D-1%3BspacingLeft%3D3%3BspacingRight%3D3%3Brotatable%3D0%3BlabelPosition%3Dright%3Bpoints%3D%5B%5D%3BportConstraint%3Deastwest%3BstrokeColor%3Dinherit%3B%22%20vertex%3D%221%22%20parent%3D%222%22%3E%3CmxGeometry%20y%3D%2252%22%20width%3D%22160%22%20height%3D%228%22%20as%3D%22geometry%22%2F%3E%3C%2FmxCell%3E%3CmxCell%20id%3D%225%22%20value%3D%22%2B%20method(type)%3A%20type%22%20style%3D%22text%3BstrokeColor%3Dnone%3BfillColor%3Dnone%3Balign%3Dleft%3BverticalAlign%3Dtop%3BspacingLeft%3D4%3BspacingRight%3D4%3Boverflow%3Dhidden%3Brotatable%3D0%3Bpoints%3D%5B%5B0%2C0.5%5D%2C%5B1%2C0.5%5D%5D%3BportConstraint%3Deastwest%3BwhiteSpace%3Dwrap%3Bhtml%3D1%3B%22%20vertex%3D%221%22%20parent%3D%222%22%3E%3CmxGeometry%20y%3D%2260%22%20width%3D%22160%22%20height%3D%2226%22%20as%3D%22geometry%22%2F%3E%3C%2FmxCell%3E%3C%2Froot%3E%3C%2FmxGraphModel%3E&lt;/span&gt;" style="swimlane;fontStyle=1;align=center;verticalAlign=top;childLayout=stackLayout;horizontal=1;startSize=26;horizontalStack=0;resizeParent=1;resizeParentMax=0;resizeLast=0;collapsible=1;marginBottom=0;whiteSpace=wrap;html=1;fillColor=#dae8fc;strokeColor=#6c8ebf;" parent="WIyWlLk6GJQsqaUBKTNV-1" vertex="1">
          <mxGeometry x="1065" y="-150" width="160" height="164" as="geometry" />
        </mxCell>
        <mxCell id="T9J1k0kJC5R4wE0G7LZG-64" value="resolucion: String" style="text;strokeColor=none;fillColor=none;align=left;verticalAlign=top;spacingLeft=4;spacingRight=4;overflow=hidden;rotatable=0;points=[[0,0.5],[1,0.5]];portConstraint=eastwest;whiteSpace=wrap;html=1;" parent="T9J1k0kJC5R4wE0G7LZG-12" vertex="1">
          <mxGeometry y="26" width="160" height="26" as="geometry" />
        </mxCell>
        <mxCell id="T9J1k0kJC5R4wE0G7LZG-65" value="material: String" style="text;strokeColor=none;fillColor=none;align=left;verticalAlign=top;spacingLeft=4;spacingRight=4;overflow=hidden;rotatable=0;points=[[0,0.5],[1,0.5]];portConstraint=eastwest;whiteSpace=wrap;html=1;" parent="T9J1k0kJC5R4wE0G7LZG-12" vertex="1">
          <mxGeometry y="52" width="160" height="26" as="geometry" />
        </mxCell>
        <mxCell id="T9J1k0kJC5R4wE0G7LZG-62" value="relacionImagen: String" style="text;strokeColor=none;fillColor=none;align=left;verticalAlign=top;spacingLeft=4;spacingRight=4;overflow=hidden;rotatable=0;points=[[0,0.5],[1,0.5]];portConstraint=eastwest;whiteSpace=wrap;html=1;" parent="T9J1k0kJC5R4wE0G7LZG-12" vertex="1">
          <mxGeometry y="78" width="160" height="26" as="geometry" />
        </mxCell>
        <mxCell id="T9J1k0kJC5R4wE0G7LZG-63" value="siColor: String" style="text;strokeColor=none;fillColor=none;align=left;verticalAlign=top;spacingLeft=4;spacingRight=4;overflow=hidden;rotatable=0;points=[[0,0.5],[1,0.5]];portConstraint=eastwest;whiteSpace=wrap;html=1;" parent="T9J1k0kJC5R4wE0G7LZG-12" vertex="1">
          <mxGeometry y="104" width="160" height="26" as="geometry" />
        </mxCell>
        <mxCell id="T9J1k0kJC5R4wE0G7LZG-14" value="" style="line;strokeWidth=1;fillColor=none;align=left;verticalAlign=middle;spacingTop=-1;spacingLeft=3;spacingRight=3;rotatable=0;labelPosition=right;points=[];portConstraint=eastwest;strokeColor=inherit;" parent="T9J1k0kJC5R4wE0G7LZG-12" vertex="1">
          <mxGeometry y="130" width="160" height="8" as="geometry" />
        </mxCell>
        <mxCell id="tXUEc1l4zNeXvUGdgny_-91" value="Setters/Getters()" style="text;align=left;verticalAlign=top;spacingLeft=4;spacingRight=4;overflow=hidden;rotatable=0;points=[[0,0.5],[1,0.5]];portConstraint=eastwest;" vertex="1" parent="T9J1k0kJC5R4wE0G7LZG-12">
          <mxGeometry y="138" width="160" height="26" as="geometry" />
        </mxCell>
        <mxCell id="T9J1k0kJC5R4wE0G7LZG-16" value="&lt;span style=&quot;font-weight: normal;&quot;&gt;Escultura&lt;/span&gt;" style="swimlane;fontStyle=1;align=center;verticalAlign=top;childLayout=stackLayout;horizontal=1;startSize=26;horizontalStack=0;resizeParent=1;resizeParentMax=0;resizeLast=0;collapsible=1;marginBottom=0;whiteSpace=wrap;html=1;fillColor=#dae8fc;strokeColor=#6c8ebf;" parent="WIyWlLk6GJQsqaUBKTNV-1" vertex="1">
          <mxGeometry x="1065" y="-840" width="170" height="190" as="geometry" />
        </mxCell>
        <mxCell id="T9J1k0kJC5R4wE0G7LZG-53" value="material: String" style="text;align=left;verticalAlign=top;spacingLeft=4;spacingRight=4;overflow=hidden;rotatable=0;points=[[0,0.5],[1,0.5]];portConstraint=eastwest;whiteSpace=wrap;html=1;" parent="T9J1k0kJC5R4wE0G7LZG-16" vertex="1">
          <mxGeometry y="26" width="170" height="26" as="geometry" />
        </mxCell>
        <mxCell id="T9J1k0kJC5R4wE0G7LZG-17" value="detallesInstalacion: String" style="text;strokeColor=none;fillColor=none;align=left;verticalAlign=top;spacingLeft=4;spacingRight=4;overflow=hidden;rotatable=0;points=[[0,0.5],[1,0.5]];portConstraint=eastwest;whiteSpace=wrap;html=1;" parent="T9J1k0kJC5R4wE0G7LZG-16" vertex="1">
          <mxGeometry y="52" width="170" height="26" as="geometry" />
        </mxCell>
        <mxCell id="T9J1k0kJC5R4wE0G7LZG-52" value="dimensiones: double" style="text;strokeColor=none;fillColor=none;align=left;verticalAlign=top;spacingLeft=4;spacingRight=4;overflow=hidden;rotatable=0;points=[[0,0.5],[1,0.5]];portConstraint=eastwest;whiteSpace=wrap;html=1;" parent="T9J1k0kJC5R4wE0G7LZG-16" vertex="1">
          <mxGeometry y="78" width="170" height="26" as="geometry" />
        </mxCell>
        <mxCell id="T9J1k0kJC5R4wE0G7LZG-60" value="requiereElecticidad: boolean" style="text;strokeColor=none;fillColor=none;align=left;verticalAlign=top;spacingLeft=4;spacingRight=4;overflow=hidden;rotatable=0;points=[[0,0.5],[1,0.5]];portConstraint=eastwest;whiteSpace=wrap;html=1;" parent="T9J1k0kJC5R4wE0G7LZG-16" vertex="1">
          <mxGeometry y="104" width="170" height="26" as="geometry" />
        </mxCell>
        <mxCell id="T9J1k0kJC5R4wE0G7LZG-61" value="peso: String" style="text;strokeColor=none;fillColor=none;align=left;verticalAlign=top;spacingLeft=4;spacingRight=4;overflow=hidden;rotatable=0;points=[[0,0.5],[1,0.5]];portConstraint=eastwest;whiteSpace=wrap;html=1;" parent="T9J1k0kJC5R4wE0G7LZG-16" vertex="1">
          <mxGeometry y="130" width="170" height="26" as="geometry" />
        </mxCell>
        <mxCell id="T9J1k0kJC5R4wE0G7LZG-18" value="" style="line;strokeWidth=1;fillColor=none;align=left;verticalAlign=middle;spacingTop=-1;spacingLeft=3;spacingRight=3;rotatable=0;labelPosition=right;points=[];portConstraint=eastwest;strokeColor=inherit;" parent="T9J1k0kJC5R4wE0G7LZG-16" vertex="1">
          <mxGeometry y="156" width="170" height="8" as="geometry" />
        </mxCell>
        <mxCell id="tXUEc1l4zNeXvUGdgny_-92" value="Setters/Getters()" style="text;align=left;verticalAlign=top;spacingLeft=4;spacingRight=4;overflow=hidden;rotatable=0;points=[[0,0.5],[1,0.5]];portConstraint=eastwest;" vertex="1" parent="T9J1k0kJC5R4wE0G7LZG-16">
          <mxGeometry y="164" width="170" height="26" as="geometry" />
        </mxCell>
        <mxCell id="T9J1k0kJC5R4wE0G7LZG-20" value="&lt;span style=&quot;font-weight: normal;&quot;&gt;Fotografia&lt;/span&gt;" style="swimlane;fontStyle=1;align=center;verticalAlign=top;childLayout=stackLayout;horizontal=1;startSize=26;horizontalStack=0;resizeParent=1;resizeParentMax=0;resizeLast=0;collapsible=1;marginBottom=0;whiteSpace=wrap;html=1;fillColor=#dae8fc;strokeColor=#6c8ebf;" parent="WIyWlLk6GJQsqaUBKTNV-1" vertex="1">
          <mxGeometry x="1065" y="-476" width="160" height="138" as="geometry" />
        </mxCell>
        <mxCell id="T9J1k0kJC5R4wE0G7LZG-21" value="resolucion: String" style="text;strokeColor=none;fillColor=none;align=left;verticalAlign=top;spacingLeft=4;spacingRight=4;overflow=hidden;rotatable=0;points=[[0,0.5],[1,0.5]];portConstraint=eastwest;whiteSpace=wrap;html=1;" parent="T9J1k0kJC5R4wE0G7LZG-20" vertex="1">
          <mxGeometry y="26" width="160" height="26" as="geometry" />
        </mxCell>
        <mxCell id="T9J1k0kJC5R4wE0G7LZG-55" value="siColor: String" style="text;strokeColor=none;fillColor=none;align=left;verticalAlign=top;spacingLeft=4;spacingRight=4;overflow=hidden;rotatable=0;points=[[0,0.5],[1,0.5]];portConstraint=eastwest;whiteSpace=wrap;html=1;" parent="T9J1k0kJC5R4wE0G7LZG-20" vertex="1">
          <mxGeometry y="52" width="160" height="26" as="geometry" />
        </mxCell>
        <mxCell id="T9J1k0kJC5R4wE0G7LZG-54" value="relacionImagen: String" style="text;strokeColor=none;fillColor=none;align=left;verticalAlign=top;spacingLeft=4;spacingRight=4;overflow=hidden;rotatable=0;points=[[0,0.5],[1,0.5]];portConstraint=eastwest;whiteSpace=wrap;html=1;" parent="T9J1k0kJC5R4wE0G7LZG-20" vertex="1">
          <mxGeometry y="78" width="160" height="26" as="geometry" />
        </mxCell>
        <mxCell id="T9J1k0kJC5R4wE0G7LZG-22" value="" style="line;strokeWidth=1;fillColor=none;align=left;verticalAlign=middle;spacingTop=-1;spacingLeft=3;spacingRight=3;rotatable=0;labelPosition=right;points=[];portConstraint=eastwest;strokeColor=inherit;" parent="T9J1k0kJC5R4wE0G7LZG-20" vertex="1">
          <mxGeometry y="104" width="160" height="8" as="geometry" />
        </mxCell>
        <mxCell id="tXUEc1l4zNeXvUGdgny_-89" value="Setters/Getters()" style="text;align=left;verticalAlign=top;spacingLeft=4;spacingRight=4;overflow=hidden;rotatable=0;points=[[0,0.5],[1,0.5]];portConstraint=eastwest;" vertex="1" parent="T9J1k0kJC5R4wE0G7LZG-20">
          <mxGeometry y="112" width="160" height="26" as="geometry" />
        </mxCell>
        <mxCell id="T9J1k0kJC5R4wE0G7LZG-25" value="Cajero" style="swimlane;fontStyle=0;align=center;verticalAlign=top;childLayout=stackLayout;horizontal=1;startSize=26;horizontalStack=0;resizeParent=1;resizeLast=0;collapsible=1;marginBottom=0;rounded=0;shadow=0;strokeWidth=1;fillColor=#d5e8d4;strokeColor=#82b366;" parent="WIyWlLk6GJQsqaUBKTNV-1" vertex="1">
          <mxGeometry x="340" y="-1169" width="160" height="90" as="geometry">
            <mxRectangle x="340" y="380" width="170" height="26" as="alternateBounds" />
          </mxGeometry>
        </mxCell>
        <mxCell id="n8hrpAmNtIxC3Bg8Zhbz-2" value="&lt;span style=&quot;line-height: 107%;&quot;&gt;&lt;font style=&quot;font-size: 12px;&quot;&gt;PagoRealizado: boolean&lt;/font&gt;&lt;/span&gt;" style="text;whiteSpace=wrap;html=1;" parent="T9J1k0kJC5R4wE0G7LZG-25" vertex="1">
          <mxGeometry y="26" width="160" height="24" as="geometry" />
        </mxCell>
        <mxCell id="T9J1k0kJC5R4wE0G7LZG-27" value="" style="line;html=1;strokeWidth=1;align=left;verticalAlign=middle;spacingTop=-1;spacingLeft=3;spacingRight=3;rotatable=0;labelPosition=right;points=[];portConstraint=eastwest;" parent="T9J1k0kJC5R4wE0G7LZG-25" vertex="1">
          <mxGeometry y="50" width="160" height="8" as="geometry" />
        </mxCell>
        <mxCell id="ilfk3USVHJTjclYqwWFc-8" value="&lt;span style=&quot;line-height: 107%;&quot;&gt;&lt;font style=&quot;font-size: 12px;&quot;&gt;Cobrar(NombrePieza)&lt;/font&gt;&lt;/span&gt;" style="text;whiteSpace=wrap;html=1;" parent="T9J1k0kJC5R4wE0G7LZG-25" vertex="1">
          <mxGeometry y="58" width="160" height="24" as="geometry" />
        </mxCell>
        <mxCell id="ilfk3USVHJTjclYqwWFc-88" style="edgeStyle=elbowEdgeStyle;rounded=0;orthogonalLoop=1;jettySize=auto;html=1;elbow=vertical;strokeColor=#33ff33;" parent="WIyWlLk6GJQsqaUBKTNV-1" edge="1">
          <mxGeometry relative="1" as="geometry">
            <mxPoint x="15" y="-140" as="sourcePoint" />
            <mxPoint x="-30" y="-620" as="targetPoint" />
            <Array as="points">
              <mxPoint x="-72.5" y="-430" />
            </Array>
          </mxGeometry>
        </mxCell>
        <mxCell id="ilfk3USVHJTjclYqwWFc-89" value="1" style="edgeLabel;html=1;align=center;verticalAlign=middle;resizable=0;points=[];" parent="ilfk3USVHJTjclYqwWFc-88" vertex="1" connectable="0">
          <mxGeometry x="-0.9404" y="-1" relative="1" as="geometry">
            <mxPoint as="offset" />
          </mxGeometry>
        </mxCell>
        <mxCell id="ilfk3USVHJTjclYqwWFc-90" value="1" style="edgeLabel;html=1;align=center;verticalAlign=middle;resizable=0;points=[];" parent="ilfk3USVHJTjclYqwWFc-88" vertex="1" connectable="0">
          <mxGeometry x="0.8705" y="-2" relative="1" as="geometry">
            <mxPoint as="offset" />
          </mxGeometry>
        </mxCell>
        <mxCell id="T9J1k0kJC5R4wE0G7LZG-34" value="Operador" style="swimlane;fontStyle=0;align=center;verticalAlign=top;childLayout=stackLayout;horizontal=1;startSize=26;horizontalStack=0;resizeParent=1;resizeLast=0;collapsible=1;marginBottom=0;rounded=0;shadow=0;strokeWidth=1;fillColor=#d5e8d4;strokeColor=#82b366;" parent="WIyWlLk6GJQsqaUBKTNV-1" vertex="1">
          <mxGeometry x="-60" y="-784" width="160" height="164" as="geometry">
            <mxRectangle x="340" y="380" width="170" height="26" as="alternateBounds" />
          </mxGeometry>
        </mxCell>
        <mxCell id="T9J1k0kJC5R4wE0G7LZG-36" value="listaPujas: Array de String" style="text;align=left;verticalAlign=top;spacingLeft=4;spacingRight=4;overflow=hidden;rotatable=0;points=[[0,0.5],[1,0.5]];portConstraint=eastwest;" parent="T9J1k0kJC5R4wE0G7LZG-34" vertex="1">
          <mxGeometry y="26" width="160" height="26" as="geometry" />
        </mxCell>
        <mxCell id="T9J1k0kJC5R4wE0G7LZG-35" value="" style="line;html=1;strokeWidth=1;align=left;verticalAlign=middle;spacingTop=-1;spacingLeft=3;spacingRight=3;rotatable=0;labelPosition=right;points=[];portConstraint=eastwest;" parent="T9J1k0kJC5R4wE0G7LZG-34" vertex="1">
          <mxGeometry y="52" width="160" height="8" as="geometry" />
        </mxCell>
        <mxCell id="ilfk3USVHJTjclYqwWFc-55" value="RegistrarPujas()" style="text;align=left;verticalAlign=top;spacingLeft=4;spacingRight=4;overflow=hidden;rotatable=0;points=[[0,0.5],[1,0.5]];portConstraint=eastwest;" parent="T9J1k0kJC5R4wE0G7LZG-34" vertex="1">
          <mxGeometry y="60" width="160" height="26" as="geometry" />
        </mxCell>
        <mxCell id="ilfk3USVHJTjclYqwWFc-11" value="RegistrarPujas()" style="text;align=left;verticalAlign=top;spacingLeft=4;spacingRight=4;overflow=hidden;rotatable=0;points=[[0,0.5],[1,0.5]];portConstraint=eastwest;" parent="T9J1k0kJC5R4wE0G7LZG-34" vertex="1">
          <mxGeometry y="86" width="160" height="26" as="geometry" />
        </mxCell>
        <mxCell id="ilfk3USVHJTjclYqwWFc-12" value="GetListaPujas()&#xa;" style="text;align=left;verticalAlign=top;spacingLeft=4;spacingRight=4;overflow=hidden;rotatable=0;points=[[0,0.5],[1,0.5]];portConstraint=eastwest;" parent="T9J1k0kJC5R4wE0G7LZG-34" vertex="1">
          <mxGeometry y="112" width="160" height="26" as="geometry" />
        </mxCell>
        <mxCell id="ilfk3USVHJTjclYqwWFc-22" value="IniciarSubaste()" style="text;align=left;verticalAlign=top;spacingLeft=4;spacingRight=4;overflow=hidden;rotatable=0;points=[[0,0.5],[1,0.5]];portConstraint=eastwest;" parent="T9J1k0kJC5R4wE0G7LZG-34" vertex="1">
          <mxGeometry y="138" width="160" height="26" as="geometry" />
        </mxCell>
        <mxCell id="T9J1k0kJC5R4wE0G7LZG-69" value="" style="endArrow=block;endSize=16;endFill=0;html=1;rounded=0;exitX=0;exitY=0.5;exitDx=0;exitDy=0;entryX=1;entryY=0.5;entryDx=0;entryDy=0;fillColor=#dae8fc;strokeColor=#6c8ebf;edgeStyle=elbowEdgeStyle;" parent="WIyWlLk6GJQsqaUBKTNV-1" source="T9J1k0kJC5R4wE0G7LZG-8" target="yHp5LiDb8gGWvMPch4RD-62" edge="1">
          <mxGeometry width="160" relative="1" as="geometry">
            <mxPoint x="440" y="245" as="sourcePoint" />
            <mxPoint x="1270" y="-750" as="targetPoint" />
          </mxGeometry>
        </mxCell>
        <mxCell id="B-XOrOqqEqMm-9fevjgR-28" value="" style="endArrow=diamondThin;endFill=1;endSize=24;html=1;rounded=0;edgeStyle=elbowEdgeStyle;elbow=vertical;fillColor=#dae8fc;strokeColor=#6c8ebf;" parent="WIyWlLk6GJQsqaUBKTNV-1" source="T9J1k0kJC5R4wE0G7LZG-28" target="yHp5LiDb8gGWvMPch4RD-62" edge="1">
          <mxGeometry width="160" relative="1" as="geometry">
            <mxPoint x="670" y="72" as="sourcePoint" />
            <mxPoint x="960" y="-600" as="targetPoint" />
            <Array as="points">
              <mxPoint x="740" y="-560" />
            </Array>
          </mxGeometry>
        </mxCell>
        <mxCell id="B-XOrOqqEqMm-9fevjgR-30" value="&lt;font style=&quot;font-size: 11px;&quot;&gt;1&lt;/font&gt;" style="edgeLabel;html=1;align=center;verticalAlign=middle;resizable=0;points=[];" parent="B-XOrOqqEqMm-9fevjgR-28" connectable="0" vertex="1">
          <mxGeometry x="-0.8795" y="-1" relative="1" as="geometry">
            <mxPoint as="offset" />
          </mxGeometry>
        </mxCell>
        <mxCell id="yHp5LiDb8gGWvMPch4RD-71" value="Propiertario" style="swimlane;fontStyle=0;align=center;verticalAlign=top;childLayout=stackLayout;horizontal=1;startSize=26;horizontalStack=0;resizeParent=1;resizeLast=0;collapsible=1;marginBottom=0;rounded=0;shadow=0;strokeWidth=1;fillColor=#d5e8d4;strokeColor=#82b366;" parent="WIyWlLk6GJQsqaUBKTNV-1" vertex="1">
          <mxGeometry x="-30" y="-1169" width="160" height="140" as="geometry">
            <mxRectangle x="130" y="380" width="160" height="26" as="alternateBounds" />
          </mxGeometry>
        </mxCell>
        <mxCell id="yHp5LiDb8gGWvMPch4RD-73" value="listaPiezas: Array de String" style="text;align=left;verticalAlign=top;spacingLeft=4;spacingRight=4;overflow=hidden;rotatable=0;points=[[0,0.5],[1,0.5]];portConstraint=eastwest;" parent="yHp5LiDb8gGWvMPch4RD-71" vertex="1">
          <mxGeometry y="26" width="160" height="28" as="geometry" />
        </mxCell>
        <mxCell id="yHp5LiDb8gGWvMPch4RD-74" value="" style="line;html=1;strokeWidth=1;align=left;verticalAlign=middle;spacingTop=-1;spacingLeft=3;spacingRight=3;rotatable=0;labelPosition=right;points=[];portConstraint=eastwest;" parent="yHp5LiDb8gGWvMPch4RD-71" vertex="1">
          <mxGeometry y="54" width="160" height="8" as="geometry" />
        </mxCell>
        <mxCell id="ilfk3USVHJTjclYqwWFc-14" value="vender()" style="text;align=left;verticalAlign=top;spacingLeft=4;spacingRight=4;overflow=hidden;rotatable=0;points=[[0,0.5],[1,0.5]];portConstraint=eastwest;" parent="yHp5LiDb8gGWvMPch4RD-71" vertex="1">
          <mxGeometry y="62" width="160" height="26" as="geometry" />
        </mxCell>
        <mxCell id="ilfk3USVHJTjclYqwWFc-15" value="consultar_piezas()" style="text;align=left;verticalAlign=top;spacingLeft=4;spacingRight=4;overflow=hidden;rotatable=0;points=[[0,0.5],[1,0.5]];portConstraint=eastwest;" parent="yHp5LiDb8gGWvMPch4RD-71" vertex="1">
          <mxGeometry y="88" width="160" height="26" as="geometry" />
        </mxCell>
        <mxCell id="ilfk3USVHJTjclYqwWFc-16" value="piezas_vendidas()" style="text;align=left;verticalAlign=top;spacingLeft=4;spacingRight=4;overflow=hidden;rotatable=0;points=[[0,0.5],[1,0.5]];portConstraint=eastwest;" parent="yHp5LiDb8gGWvMPch4RD-71" vertex="1">
          <mxGeometry y="114" width="160" height="26" as="geometry" />
        </mxCell>
        <mxCell id="B-XOrOqqEqMm-9fevjgR-46" value="" style="endArrow=diamondThin;endFill=1;endSize=24;html=1;rounded=0;fillColor=#dae8fc;strokeColor=#6c8ebf;edgeStyle=elbowEdgeStyle;" parent="WIyWlLk6GJQsqaUBKTNV-1" target="T9J1k0kJC5R4wE0G7LZG-28" edge="1">
          <mxGeometry width="160" relative="1" as="geometry">
            <mxPoint x="470" y="-338" as="sourcePoint" />
            <mxPoint x="627" y="-658" as="targetPoint" />
          </mxGeometry>
        </mxCell>
        <mxCell id="T9J1k0kJC5R4wE0G7LZG-28" value="Inventario" style="swimlane;fontStyle=0;align=center;verticalAlign=top;childLayout=stackLayout;horizontal=1;startSize=26;horizontalStack=0;resizeParent=1;resizeLast=0;collapsible=1;marginBottom=0;rounded=0;shadow=0;strokeWidth=1;fillColor=#dae8fc;strokeColor=#6c8ebf;" parent="WIyWlLk6GJQsqaUBKTNV-1" vertex="1">
          <mxGeometry x="627" y="-736" width="180" height="86" as="geometry">
            <mxRectangle x="340" y="380" width="170" height="26" as="alternateBounds" />
          </mxGeometry>
        </mxCell>
        <mxCell id="T9J1k0kJC5R4wE0G7LZG-31" value="listaDePiezas: Array de Strings" style="text;align=left;verticalAlign=top;spacingLeft=4;spacingRight=4;overflow=hidden;rotatable=0;points=[[0,0.5],[1,0.5]];portConstraint=eastwest;" parent="T9J1k0kJC5R4wE0G7LZG-28" vertex="1">
          <mxGeometry y="26" width="180" height="26" as="geometry" />
        </mxCell>
        <mxCell id="T9J1k0kJC5R4wE0G7LZG-30" value="" style="line;html=1;strokeWidth=1;align=left;verticalAlign=middle;spacingTop=-1;spacingLeft=3;spacingRight=3;rotatable=0;labelPosition=right;points=[];portConstraint=eastwest;" parent="T9J1k0kJC5R4wE0G7LZG-28" vertex="1">
          <mxGeometry y="52" width="180" height="8" as="geometry" />
        </mxCell>
        <mxCell id="B-XOrOqqEqMm-9fevjgR-61" value="" style="endArrow=diamondThin;endFill=1;endSize=24;html=1;rounded=0;edgeStyle=elbowEdgeStyle;fillColor=#e1d5e7;strokeColor=#9673A6;" parent="WIyWlLk6GJQsqaUBKTNV-1" source="yHp5LiDb8gGWvMPch4RD-89" target="yHp5LiDb8gGWvMPch4RD-80" edge="1">
          <mxGeometry width="160" relative="1" as="geometry">
            <mxPoint x="400" y="-560" as="sourcePoint" />
            <mxPoint x="538" y="-166" as="targetPoint" />
            <Array as="points">
              <mxPoint x="90" y="-320" />
            </Array>
          </mxGeometry>
        </mxCell>
        <mxCell id="tXUEc1l4zNeXvUGdgny_-70" value="1" style="edgeLabel;html=1;align=center;verticalAlign=middle;resizable=0;points=[];" vertex="1" connectable="0" parent="B-XOrOqqEqMm-9fevjgR-61">
          <mxGeometry x="-0.8749" y="-1" relative="1" as="geometry">
            <mxPoint as="offset" />
          </mxGeometry>
        </mxCell>
        <mxCell id="tXUEc1l4zNeXvUGdgny_-71" value="1" style="edgeLabel;html=1;align=center;verticalAlign=middle;resizable=0;points=[];" vertex="1" connectable="0" parent="B-XOrOqqEqMm-9fevjgR-61">
          <mxGeometry x="0.7951" relative="1" as="geometry">
            <mxPoint as="offset" />
          </mxGeometry>
        </mxCell>
        <mxCell id="B-XOrOqqEqMm-9fevjgR-62" value="" style="endArrow=diamondThin;endFill=1;endSize=24;html=1;rounded=0;edgeStyle=elbowEdgeStyle;elbow=vertical;strokeColor=#9673A6;" parent="WIyWlLk6GJQsqaUBKTNV-1" source="yHp5LiDb8gGWvMPch4RD-89" target="yHp5LiDb8gGWvMPch4RD-83" edge="1">
          <mxGeometry width="160" relative="1" as="geometry">
            <mxPoint x="515" y="-440" as="sourcePoint" />
            <mxPoint x="605" y="-318" as="targetPoint" />
            <Array as="points">
              <mxPoint x="230" y="-240" />
            </Array>
          </mxGeometry>
        </mxCell>
        <mxCell id="tXUEc1l4zNeXvUGdgny_-67" value="1" style="edgeLabel;html=1;align=center;verticalAlign=middle;resizable=0;points=[];" vertex="1" connectable="0" parent="B-XOrOqqEqMm-9fevjgR-62">
          <mxGeometry x="-0.7946" y="-1" relative="1" as="geometry">
            <mxPoint as="offset" />
          </mxGeometry>
        </mxCell>
        <mxCell id="tXUEc1l4zNeXvUGdgny_-69" value="1" style="edgeLabel;html=1;align=center;verticalAlign=middle;resizable=0;points=[];" vertex="1" connectable="0" parent="B-XOrOqqEqMm-9fevjgR-62">
          <mxGeometry x="0.7914" y="-2" relative="1" as="geometry">
            <mxPoint as="offset" />
          </mxGeometry>
        </mxCell>
        <mxCell id="B-XOrOqqEqMm-9fevjgR-65" value="" style="endArrow=diamondThin;endFill=1;endSize=24;html=1;rounded=0;exitX=0.5;exitY=1;exitDx=0;exitDy=0;entryX=1;entryY=0.5;entryDx=0;entryDy=0;edgeStyle=orthogonalEdgeStyle;fillColor=#dae8fc;strokeColor=#6c8ebf;" parent="WIyWlLk6GJQsqaUBKTNV-1" source="yHp5LiDb8gGWvMPch4RD-62" target="yHp5LiDb8gGWvMPch4RD-83" edge="1">
          <mxGeometry width="160" relative="1" as="geometry">
            <mxPoint x="580" y="-467" as="sourcePoint" />
            <mxPoint x="940" y="-410" as="targetPoint" />
          </mxGeometry>
        </mxCell>
        <mxCell id="tXUEc1l4zNeXvUGdgny_-102" value="1" style="edgeLabel;html=1;align=center;verticalAlign=middle;resizable=0;points=[];" vertex="1" connectable="0" parent="B-XOrOqqEqMm-9fevjgR-65">
          <mxGeometry x="0.8065" y="-5" relative="1" as="geometry">
            <mxPoint as="offset" />
          </mxGeometry>
        </mxCell>
        <mxCell id="tXUEc1l4zNeXvUGdgny_-103" value="1" style="edgeLabel;html=1;align=center;verticalAlign=middle;resizable=0;points=[];" vertex="1" connectable="0" parent="B-XOrOqqEqMm-9fevjgR-65">
          <mxGeometry x="-0.9009" y="-1" relative="1" as="geometry">
            <mxPoint y="-1" as="offset" />
          </mxGeometry>
        </mxCell>
        <mxCell id="ilfk3USVHJTjclYqwWFc-30" value="usuario" style="shape=umlFrame;whiteSpace=wrap;html=1;pointerEvents=0;strokeColor=#33ff33;fillColor=#33FF33;" parent="WIyWlLk6GJQsqaUBKTNV-1" vertex="1">
          <mxGeometry x="-360" y="-1455" width="890" height="875" as="geometry" />
        </mxCell>
        <mxCell id="ilfk3USVHJTjclYqwWFc-38" value="Extends" style="endArrow=block;endSize=16;endFill=0;html=1;rounded=0;exitX=0.5;exitY=0;exitDx=0;exitDy=0;edgeStyle=elbowEdgeStyle;elbow=vertical;strokeColor=#33ff33;" parent="WIyWlLk6GJQsqaUBKTNV-1" source="yHp5LiDb8gGWvMPch4RD-53" target="yHp5LiDb8gGWvMPch4RD-46" edge="1">
          <mxGeometry width="160" relative="1" as="geometry">
            <mxPoint x="-140" y="-1220" as="sourcePoint" />
            <mxPoint x="20" y="-1220" as="targetPoint" />
          </mxGeometry>
        </mxCell>
        <mxCell id="ilfk3USVHJTjclYqwWFc-70" value="Text" style="edgeLabel;html=1;align=center;verticalAlign=middle;resizable=0;points=[];" parent="ilfk3USVHJTjclYqwWFc-38" vertex="1" connectable="0">
          <mxGeometry x="0.5224" y="1" relative="1" as="geometry">
            <mxPoint as="offset" />
          </mxGeometry>
        </mxCell>
        <mxCell id="ilfk3USVHJTjclYqwWFc-39" value="Extends" style="endArrow=block;endSize=16;endFill=0;html=1;rounded=0;exitX=0.5;exitY=0;exitDx=0;exitDy=0;edgeStyle=elbowEdgeStyle;elbow=vertical;entryX=0.5;entryY=1;entryDx=0;entryDy=0;strokeColor=#33ff33;" parent="WIyWlLk6GJQsqaUBKTNV-1" source="T9J1k0kJC5R4wE0G7LZG-34" target="yHp5LiDb8gGWvMPch4RD-46" edge="1">
          <mxGeometry width="160" relative="1" as="geometry">
            <mxPoint x="-130" y="-1210" as="sourcePoint" />
            <mxPoint x="170" y="-1220" as="targetPoint" />
            <Array as="points">
              <mxPoint x="160" y="-1000" />
            </Array>
          </mxGeometry>
        </mxCell>
        <mxCell id="ilfk3USVHJTjclYqwWFc-40" value="Extends" style="endArrow=block;endSize=16;endFill=0;html=1;rounded=0;exitX=0.544;exitY=-0.022;exitDx=0;exitDy=0;exitPerimeter=0;edgeStyle=elbowEdgeStyle;elbow=vertical;strokeColor=#33ff33;" parent="WIyWlLk6GJQsqaUBKTNV-1" source="yHp5LiDb8gGWvMPch4RD-59" target="yHp5LiDb8gGWvMPch4RD-46" edge="1">
          <mxGeometry width="160" relative="1" as="geometry">
            <mxPoint x="-120" y="-1200" as="sourcePoint" />
            <mxPoint x="170" y="-1220" as="targetPoint" />
            <Array as="points">
              <mxPoint x="290" y="-1000" />
            </Array>
          </mxGeometry>
        </mxCell>
        <mxCell id="ilfk3USVHJTjclYqwWFc-41" value="Extends" style="endArrow=block;endSize=16;endFill=0;html=1;rounded=0;exitX=0.5;exitY=0;exitDx=0;exitDy=0;edgeStyle=elbowEdgeStyle;elbow=vertical;strokeColor=#33ff33;" parent="WIyWlLk6GJQsqaUBKTNV-1" source="yHp5LiDb8gGWvMPch4RD-71" target="yHp5LiDb8gGWvMPch4RD-46" edge="1">
          <mxGeometry x="0.0058" width="160" relative="1" as="geometry">
            <mxPoint x="-110" y="-1190" as="sourcePoint" />
            <mxPoint x="170" y="-1220" as="targetPoint" />
            <mxPoint as="offset" />
          </mxGeometry>
        </mxCell>
        <mxCell id="ilfk3USVHJTjclYqwWFc-42" value="Extends" style="endArrow=block;endSize=16;endFill=0;html=1;rounded=0;exitX=0.5;exitY=0;exitDx=0;exitDy=0;edgeStyle=elbowEdgeStyle;elbow=vertical;entryX=0.5;entryY=1;entryDx=0;entryDy=0;strokeColor=#33ff33;" parent="WIyWlLk6GJQsqaUBKTNV-1" source="T9J1k0kJC5R4wE0G7LZG-25" target="yHp5LiDb8gGWvMPch4RD-46" edge="1">
          <mxGeometry width="160" relative="1" as="geometry">
            <mxPoint x="290" y="-1250" as="sourcePoint" />
            <mxPoint x="170" y="-1220" as="targetPoint" />
          </mxGeometry>
        </mxCell>
        <mxCell id="ilfk3USVHJTjclYqwWFc-43" value="venta" style="shape=umlFrame;whiteSpace=wrap;html=1;pointerEvents=0;strokeColor=#9673A6;fillColor=#9673A6;" parent="WIyWlLk6GJQsqaUBKTNV-1" vertex="1">
          <mxGeometry x="-470" y="-524" width="990" height="624" as="geometry" />
        </mxCell>
        <mxCell id="ilfk3USVHJTjclYqwWFc-48" value="" style="endArrow=diamondThin;endFill=0;endSize=24;html=1;rounded=0;strokeColor=#9673A6;edgeStyle=elbowEdgeStyle;elbow=vertical;" parent="WIyWlLk6GJQsqaUBKTNV-1" source="yHp5LiDb8gGWvMPch4RD-83" target="yHp5LiDb8gGWvMPch4RD-80" edge="1">
          <mxGeometry width="160" relative="1" as="geometry">
            <mxPoint x="-30" y="27" as="sourcePoint" />
            <mxPoint x="-130" y="-190" as="targetPoint" />
          </mxGeometry>
        </mxCell>
        <mxCell id="tXUEc1l4zNeXvUGdgny_-72" value="1" style="edgeLabel;html=1;align=center;verticalAlign=middle;resizable=0;points=[];" vertex="1" connectable="0" parent="ilfk3USVHJTjclYqwWFc-48">
          <mxGeometry x="0.3171" y="-1" relative="1" as="geometry">
            <mxPoint as="offset" />
          </mxGeometry>
        </mxCell>
        <mxCell id="tXUEc1l4zNeXvUGdgny_-73" value="1" style="edgeLabel;html=1;align=center;verticalAlign=middle;resizable=0;points=[];" vertex="1" connectable="0" parent="ilfk3USVHJTjclYqwWFc-48">
          <mxGeometry x="-0.5019" y="2" relative="1" as="geometry">
            <mxPoint as="offset" />
          </mxGeometry>
        </mxCell>
        <mxCell id="ilfk3USVHJTjclYqwWFc-50" value="" style="endArrow=diamondThin;endFill=0;endSize=24;html=1;rounded=0;fillColor=#3BFF76;strokeColor=#33FF33;edgeStyle=elbowEdgeStyle;" parent="WIyWlLk6GJQsqaUBKTNV-1" source="yHp5LiDb8gGWvMPch4RD-80" target="yHp5LiDb8gGWvMPch4RD-59" edge="1">
          <mxGeometry width="160" relative="1" as="geometry">
            <mxPoint x="70" y="-283" as="sourcePoint" />
            <mxPoint x="-30" y="-500" as="targetPoint" />
            <Array as="points">
              <mxPoint x="160" y="-480" />
            </Array>
          </mxGeometry>
        </mxCell>
        <mxCell id="ilfk3USVHJTjclYqwWFc-75" value="1" style="edgeLabel;html=1;align=center;verticalAlign=middle;resizable=0;points=[];" parent="ilfk3USVHJTjclYqwWFc-50" vertex="1" connectable="0">
          <mxGeometry x="-0.8611" relative="1" as="geometry">
            <mxPoint as="offset" />
          </mxGeometry>
        </mxCell>
        <mxCell id="ilfk3USVHJTjclYqwWFc-76" value="1" style="edgeLabel;html=1;align=center;verticalAlign=middle;resizable=0;points=[];" parent="ilfk3USVHJTjclYqwWFc-50" vertex="1" connectable="0">
          <mxGeometry x="0.8436" y="-2" relative="1" as="geometry">
            <mxPoint as="offset" />
          </mxGeometry>
        </mxCell>
        <mxCell id="ilfk3USVHJTjclYqwWFc-51" value="" style="endArrow=diamondThin;endFill=0;endSize=24;html=1;rounded=0;strokeColor=#33ff33;edgeStyle=elbowEdgeStyle;elbow=vertical;" parent="WIyWlLk6GJQsqaUBKTNV-1" source="yHp5LiDb8gGWvMPch4RD-89" target="yHp5LiDb8gGWvMPch4RD-59" edge="1">
          <mxGeometry width="160" relative="1" as="geometry">
            <mxPoint x="-130" y="-382" as="sourcePoint" />
            <mxPoint x="330" y="-640" as="targetPoint" />
          </mxGeometry>
        </mxCell>
        <mxCell id="ilfk3USVHJTjclYqwWFc-80" value="1" style="edgeLabel;html=1;align=center;verticalAlign=middle;resizable=0;points=[];" parent="ilfk3USVHJTjclYqwWFc-51" vertex="1" connectable="0">
          <mxGeometry x="0.6576" relative="1" as="geometry">
            <mxPoint as="offset" />
          </mxGeometry>
        </mxCell>
        <mxCell id="ilfk3USVHJTjclYqwWFc-81" value="1" style="edgeLabel;html=1;align=center;verticalAlign=middle;resizable=0;points=[];" parent="ilfk3USVHJTjclYqwWFc-51" vertex="1" connectable="0">
          <mxGeometry x="-0.8506" y="-3" relative="1" as="geometry">
            <mxPoint as="offset" />
          </mxGeometry>
        </mxCell>
        <mxCell id="ilfk3USVHJTjclYqwWFc-52" value="" style="endArrow=diamondThin;endFill=0;endSize=24;html=1;rounded=0;strokeColor=#33ff33;edgeStyle=elbowEdgeStyle;elbow=vertical;exitX=0.75;exitY=0;exitDx=0;exitDy=0;" parent="WIyWlLk6GJQsqaUBKTNV-1" edge="1">
          <mxGeometry width="160" relative="1" as="geometry">
            <mxPoint x="140" y="-140" as="sourcePoint" />
            <mxPoint x="422.5" y="-620" as="targetPoint" />
            <Array as="points">
              <mxPoint x="297.5" y="-480" />
            </Array>
          </mxGeometry>
        </mxCell>
        <mxCell id="ilfk3USVHJTjclYqwWFc-78" value="1" style="edgeLabel;html=1;align=center;verticalAlign=middle;resizable=0;points=[];" parent="ilfk3USVHJTjclYqwWFc-52" vertex="1" connectable="0">
          <mxGeometry x="0.8739" relative="1" as="geometry">
            <mxPoint y="-18" as="offset" />
          </mxGeometry>
        </mxCell>
        <mxCell id="ilfk3USVHJTjclYqwWFc-79" value="1" style="edgeLabel;html=1;align=center;verticalAlign=middle;resizable=0;points=[];" parent="ilfk3USVHJTjclYqwWFc-52" vertex="1" connectable="0">
          <mxGeometry x="-0.9412" y="-3" relative="1" as="geometry">
            <mxPoint as="offset" />
          </mxGeometry>
        </mxCell>
        <mxCell id="ilfk3USVHJTjclYqwWFc-54" value="" style="endArrow=diamondThin;endFill=1;endSize=24;html=1;rounded=0;edgeStyle=elbowEdgeStyle;fillColor=#e1d5e7;strokeColor=#33ff33;elbow=vertical;" parent="WIyWlLk6GJQsqaUBKTNV-1" source="yHp5LiDb8gGWvMPch4RD-80" edge="1">
          <mxGeometry width="160" relative="1" as="geometry">
            <mxPoint x="-140" y="-292.00000000000045" as="sourcePoint" />
            <mxPoint x="-60" y="-720" as="targetPoint" />
            <Array as="points">
              <mxPoint x="-110" y="-720" />
            </Array>
          </mxGeometry>
        </mxCell>
        <mxCell id="ilfk3USVHJTjclYqwWFc-82" value="1" style="edgeLabel;html=1;align=center;verticalAlign=middle;resizable=0;points=[];" parent="ilfk3USVHJTjclYqwWFc-54" vertex="1" connectable="0">
          <mxGeometry x="0.8728" y="-2" relative="1" as="geometry">
            <mxPoint as="offset" />
          </mxGeometry>
        </mxCell>
        <mxCell id="ilfk3USVHJTjclYqwWFc-83" value="1" style="edgeLabel;html=1;align=center;verticalAlign=middle;resizable=0;points=[];" parent="ilfk3USVHJTjclYqwWFc-54" vertex="1" connectable="0">
          <mxGeometry x="-0.7878" y="2" relative="1" as="geometry">
            <mxPoint as="offset" />
          </mxGeometry>
        </mxCell>
        <mxCell id="ilfk3USVHJTjclYqwWFc-92" value="piezas" style="shape=umlFrame;whiteSpace=wrap;html=1;pointerEvents=0;strokeColor=#6C8EBF;fillColor=#6C8EBF;" parent="WIyWlLk6GJQsqaUBKTNV-1" vertex="1">
          <mxGeometry x="580" y="-990" width="680" height="1030" as="geometry" />
        </mxCell>
        <mxCell id="T9J1k0kJC5R4wE0G7LZG-4" value="&lt;span style=&quot;font-weight: normal;&quot;&gt;Pintura&lt;/span&gt;" style="swimlane;fontStyle=1;align=center;verticalAlign=top;childLayout=stackLayout;horizontal=1;startSize=26;horizontalStack=0;resizeParent=1;resizeParentMax=0;resizeLast=0;collapsible=1;marginBottom=0;whiteSpace=wrap;html=1;fillColor=#dae8fc;strokeColor=#6c8ebf;" parent="WIyWlLk6GJQsqaUBKTNV-1" vertex="1">
          <mxGeometry x="1065" y="-640" width="160" height="138" as="geometry" />
        </mxCell>
        <mxCell id="T9J1k0kJC5R4wE0G7LZG-49" value="material: String" style="text;strokeColor=none;fillColor=none;align=left;verticalAlign=top;spacingLeft=4;spacingRight=4;overflow=hidden;rotatable=0;points=[[0,0.5],[1,0.5]];portConstraint=eastwest;whiteSpace=wrap;html=1;" parent="T9J1k0kJC5R4wE0G7LZG-4" vertex="1">
          <mxGeometry y="26" width="160" height="26" as="geometry" />
        </mxCell>
        <mxCell id="T9J1k0kJC5R4wE0G7LZG-47" value="tamanio: String" style="text;strokeColor=none;fillColor=none;align=left;verticalAlign=top;spacingLeft=4;spacingRight=4;overflow=hidden;rotatable=0;points=[[0,0.5],[1,0.5]];portConstraint=eastwest;whiteSpace=wrap;html=1;" parent="T9J1k0kJC5R4wE0G7LZG-4" vertex="1">
          <mxGeometry y="52" width="160" height="26" as="geometry" />
        </mxCell>
        <mxCell id="T9J1k0kJC5R4wE0G7LZG-5" value="lienzo: String" style="text;strokeColor=none;fillColor=none;align=left;verticalAlign=top;spacingLeft=4;spacingRight=4;overflow=hidden;rotatable=0;points=[[0,0.5],[1,0.5]];portConstraint=eastwest;whiteSpace=wrap;html=1;" parent="T9J1k0kJC5R4wE0G7LZG-4" vertex="1">
          <mxGeometry y="78" width="160" height="26" as="geometry" />
        </mxCell>
        <mxCell id="T9J1k0kJC5R4wE0G7LZG-6" value="" style="line;strokeWidth=1;fillColor=none;align=left;verticalAlign=middle;spacingTop=-1;spacingLeft=3;spacingRight=3;rotatable=0;labelPosition=right;points=[];portConstraint=eastwest;strokeColor=inherit;" parent="T9J1k0kJC5R4wE0G7LZG-4" vertex="1">
          <mxGeometry y="104" width="160" height="8" as="geometry" />
        </mxCell>
        <mxCell id="tXUEc1l4zNeXvUGdgny_-88" value="Setters/Getters()" style="text;align=left;verticalAlign=top;spacingLeft=4;spacingRight=4;overflow=hidden;rotatable=0;points=[[0,0.5],[1,0.5]];portConstraint=eastwest;" vertex="1" parent="T9J1k0kJC5R4wE0G7LZG-4">
          <mxGeometry y="112" width="160" height="26" as="geometry" />
        </mxCell>
        <mxCell id="ilfk3USVHJTjclYqwWFc-100" value="" style="endArrow=block;endSize=16;endFill=0;html=1;rounded=0;fillColor=#dae8fc;strokeColor=#6c8ebf;edgeStyle=elbowEdgeStyle;" parent="WIyWlLk6GJQsqaUBKTNV-1" source="T9J1k0kJC5R4wE0G7LZG-20" target="yHp5LiDb8gGWvMPch4RD-62" edge="1">
          <mxGeometry width="160" relative="1" as="geometry">
            <mxPoint x="1080" y="-398.5" as="sourcePoint" />
            <mxPoint x="837" y="-415.5" as="targetPoint" />
          </mxGeometry>
        </mxCell>
        <mxCell id="ilfk3USVHJTjclYqwWFc-102" value="" style="endArrow=block;endSize=16;endFill=0;html=1;rounded=0;fillColor=#dae8fc;strokeColor=#6c8ebf;edgeStyle=elbowEdgeStyle;" parent="WIyWlLk6GJQsqaUBKTNV-1" source="T9J1k0kJC5R4wE0G7LZG-4" target="yHp5LiDb8gGWvMPch4RD-62" edge="1">
          <mxGeometry width="160" relative="1" as="geometry">
            <mxPoint x="1090" y="-221" as="sourcePoint" />
            <mxPoint x="847" y="-238" as="targetPoint" />
          </mxGeometry>
        </mxCell>
        <mxCell id="ilfk3USVHJTjclYqwWFc-103" value="" style="endArrow=block;endSize=16;endFill=0;html=1;rounded=0;fillColor=#dae8fc;strokeColor=#6c8ebf;edgeStyle=elbowEdgeStyle;" parent="WIyWlLk6GJQsqaUBKTNV-1" source="T9J1k0kJC5R4wE0G7LZG-16" target="yHp5LiDb8gGWvMPch4RD-62" edge="1">
          <mxGeometry width="160" relative="1" as="geometry">
            <mxPoint x="1083" y="-653" as="sourcePoint" />
            <mxPoint x="840" y="-670" as="targetPoint" />
          </mxGeometry>
        </mxCell>
        <mxCell id="ilfk3USVHJTjclYqwWFc-104" value="" style="endArrow=block;endSize=16;endFill=0;html=1;rounded=0;fillColor=#dae8fc;strokeColor=#6c8ebf;edgeStyle=elbowEdgeStyle;" parent="WIyWlLk6GJQsqaUBKTNV-1" source="T9J1k0kJC5R4wE0G7LZG-12" target="yHp5LiDb8gGWvMPch4RD-62" edge="1">
          <mxGeometry width="160" relative="1" as="geometry">
            <mxPoint x="1110" y="-201" as="sourcePoint" />
            <mxPoint x="867" y="-218" as="targetPoint" />
          </mxGeometry>
        </mxCell>
        <mxCell id="ilfk3USVHJTjclYqwWFc-109" style="edgeStyle=elbowEdgeStyle;rounded=0;orthogonalLoop=1;jettySize=auto;html=1;strokeColor=#6C8EBF;" parent="WIyWlLk6GJQsqaUBKTNV-1" edge="1" target="T9J1k0kJC5R4wE0G7LZG-28" source="yHp5LiDb8gGWvMPch4RD-71">
          <mxGeometry relative="1" as="geometry">
            <mxPoint x="130.00000000000023" y="-1070" as="sourcePoint" />
            <mxPoint x="660" y="-707" as="targetPoint" />
            <Array as="points">
              <mxPoint x="660" y="-1050" />
            </Array>
          </mxGeometry>
        </mxCell>
        <mxCell id="ilfk3USVHJTjclYqwWFc-116" value="consola" style="shape=umlFrame;whiteSpace=wrap;html=1;pointerEvents=0;strokeColor=#FF66B3;fillColor=#FF66B3;" parent="WIyWlLk6GJQsqaUBKTNV-1" vertex="1">
          <mxGeometry x="1000" y="-1870" width="300" height="300" as="geometry" />
        </mxCell>
        <mxCell id="tXUEc1l4zNeXvUGdgny_-74" style="edgeStyle=orthogonalEdgeStyle;rounded=0;orthogonalLoop=1;jettySize=auto;html=1;strokeColor=#FF66B3;" edge="1" parent="WIyWlLk6GJQsqaUBKTNV-1" source="ilfk3USVHJTjclYqwWFc-125" target="tXUEc1l4zNeXvUGdgny_-56">
          <mxGeometry relative="1" as="geometry" />
        </mxCell>
        <mxCell id="tXUEc1l4zNeXvUGdgny_-75" style="edgeStyle=orthogonalEdgeStyle;rounded=0;orthogonalLoop=1;jettySize=auto;html=1;strokeColor=#FF66B3;" edge="1" parent="WIyWlLk6GJQsqaUBKTNV-1" source="ilfk3USVHJTjclYqwWFc-125" target="tXUEc1l4zNeXvUGdgny_-48">
          <mxGeometry relative="1" as="geometry" />
        </mxCell>
        <mxCell id="tXUEc1l4zNeXvUGdgny_-76" style="edgeStyle=orthogonalEdgeStyle;rounded=0;orthogonalLoop=1;jettySize=auto;html=1;strokeColor=#FF66B3;" edge="1" parent="WIyWlLk6GJQsqaUBKTNV-1" source="ilfk3USVHJTjclYqwWFc-125" target="tXUEc1l4zNeXvUGdgny_-60">
          <mxGeometry relative="1" as="geometry" />
        </mxCell>
        <mxCell id="tXUEc1l4zNeXvUGdgny_-77" style="edgeStyle=orthogonalEdgeStyle;rounded=0;orthogonalLoop=1;jettySize=auto;html=1;strokeColor=#FF66B3;" edge="1" parent="WIyWlLk6GJQsqaUBKTNV-1" source="ilfk3USVHJTjclYqwWFc-125" target="tXUEc1l4zNeXvUGdgny_-52">
          <mxGeometry relative="1" as="geometry">
            <Array as="points">
              <mxPoint x="570" y="-1720" />
              <mxPoint x="570" y="-1107" />
            </Array>
          </mxGeometry>
        </mxCell>
        <mxCell id="tXUEc1l4zNeXvUGdgny_-78" style="edgeStyle=orthogonalEdgeStyle;rounded=0;orthogonalLoop=1;jettySize=auto;html=1;fillColor=#fff2cc;strokeColor=#FF66B3;" edge="1" parent="WIyWlLk6GJQsqaUBKTNV-1" source="ilfk3USVHJTjclYqwWFc-125" target="tXUEc1l4zNeXvUGdgny_-44">
          <mxGeometry relative="1" as="geometry">
            <Array as="points">
              <mxPoint x="1390" y="-1720" />
              <mxPoint x="1390" y="-1107" />
            </Array>
          </mxGeometry>
        </mxCell>
        <mxCell id="ilfk3USVHJTjclYqwWFc-125" value="&lt;span style=&quot;font-weight: normal;&quot;&gt;SistemaLogin&lt;/span&gt;" style="swimlane;fontStyle=1;align=center;verticalAlign=top;childLayout=stackLayout;horizontal=1;startSize=26;horizontalStack=0;resizeParent=1;resizeParentMax=0;resizeLast=0;collapsible=1;marginBottom=0;whiteSpace=wrap;html=1;fillColor=#FF66B3;strokeColor=#FF66B3;" parent="WIyWlLk6GJQsqaUBKTNV-1" vertex="1">
          <mxGeometry x="1047.5" y="-1802" width="205" height="164" as="geometry" />
        </mxCell>
        <mxCell id="ilfk3USVHJTjclYqwWFc-126" value="Usuarios: Array de Strings" style="text;align=left;verticalAlign=top;spacingLeft=4;spacingRight=4;overflow=hidden;rotatable=0;points=[[0,0.5],[1,0.5]];portConstraint=eastwest;whiteSpace=wrap;html=1;" parent="ilfk3USVHJTjclYqwWFc-125" vertex="1">
          <mxGeometry y="26" width="205" height="26" as="geometry" />
        </mxCell>
        <mxCell id="ilfk3USVHJTjclYqwWFc-131" value="" style="line;strokeWidth=1;fillColor=none;align=left;verticalAlign=middle;spacingTop=-1;spacingLeft=3;spacingRight=3;rotatable=0;labelPosition=right;points=[];portConstraint=eastwest;strokeColor=inherit;" parent="ilfk3USVHJTjclYqwWFc-125" vertex="1">
          <mxGeometry y="52" width="205" height="8" as="geometry" />
        </mxCell>
        <mxCell id="ilfk3USVHJTjclYqwWFc-132" value="main()&lt;div&gt;&lt;br&gt;&lt;/div&gt;" style="text;strokeColor=none;fillColor=none;align=left;verticalAlign=top;spacingLeft=4;spacingRight=4;overflow=hidden;rotatable=0;points=[[0,0.5],[1,0.5]];portConstraint=eastwest;whiteSpace=wrap;html=1;" parent="ilfk3USVHJTjclYqwWFc-125" vertex="1">
          <mxGeometry y="60" width="205" height="26" as="geometry" />
        </mxCell>
        <mxCell id="ilfk3USVHJTjclYqwWFc-135" value="&lt;div&gt;IniciarSesion(Scanner)&lt;/div&gt;" style="text;strokeColor=none;fillColor=none;align=left;verticalAlign=top;spacingLeft=4;spacingRight=4;overflow=hidden;rotatable=0;points=[[0,0.5],[1,0.5]];portConstraint=eastwest;whiteSpace=wrap;html=1;" parent="ilfk3USVHJTjclYqwWFc-125" vertex="1">
          <mxGeometry y="86" width="205" height="26" as="geometry" />
        </mxCell>
        <mxCell id="ilfk3USVHJTjclYqwWFc-134" value="&lt;div&gt;CargarUsuariosDesdeCSV(String)&lt;/div&gt;" style="text;strokeColor=none;fillColor=none;align=left;verticalAlign=top;spacingLeft=4;spacingRight=4;overflow=hidden;rotatable=0;points=[[0,0.5],[1,0.5]];portConstraint=eastwest;whiteSpace=wrap;html=1;" parent="ilfk3USVHJTjclYqwWFc-125" vertex="1">
          <mxGeometry y="112" width="205" height="26" as="geometry" />
        </mxCell>
        <mxCell id="ilfk3USVHJTjclYqwWFc-136" value="&lt;div&gt;RegistrarUsuario(Scanner)&lt;/div&gt;" style="text;strokeColor=none;fillColor=none;align=left;verticalAlign=top;spacingLeft=4;spacingRight=4;overflow=hidden;rotatable=0;points=[[0,0.5],[1,0.5]];portConstraint=eastwest;whiteSpace=wrap;html=1;" parent="ilfk3USVHJTjclYqwWFc-125" vertex="1">
          <mxGeometry y="138" width="205" height="26" as="geometry" />
        </mxCell>
        <mxCell id="tXUEc1l4zNeXvUGdgny_-1" value="menu" style="shape=umlFrame;whiteSpace=wrap;html=1;pointerEvents=0;strokeColor=#FFE599;fillColor=#FFE599;" vertex="1" parent="WIyWlLk6GJQsqaUBKTNV-1">
          <mxGeometry x="580" y="-1490" width="760" height="490" as="geometry" />
        </mxCell>
        <mxCell id="tXUEc1l4zNeXvUGdgny_-44" value="&lt;span style=&quot;font-weight: 400;&quot;&gt;MenuOperador&lt;/span&gt;" style="swimlane;fontStyle=1;align=center;verticalAlign=top;childLayout=stackLayout;horizontal=1;startSize=26;horizontalStack=0;resizeParent=1;resizeParentMax=0;resizeLast=0;collapsible=1;marginBottom=0;whiteSpace=wrap;html=1;fillColor=#FFE599;strokeColor=#FFE599;" vertex="1" parent="WIyWlLk6GJQsqaUBKTNV-1">
          <mxGeometry x="1065" y="-1100" width="205" height="86" as="geometry" />
        </mxCell>
        <mxCell id="tXUEc1l4zNeXvUGdgny_-45" value="scanner: (Scanner)" style="text;align=left;verticalAlign=top;spacingLeft=4;spacingRight=4;overflow=hidden;rotatable=0;points=[[0,0.5],[1,0.5]];portConstraint=eastwest;whiteSpace=wrap;html=1;strokeColor=#FFE599;" vertex="1" parent="tXUEc1l4zNeXvUGdgny_-44">
          <mxGeometry y="26" width="205" height="26" as="geometry" />
        </mxCell>
        <mxCell id="tXUEc1l4zNeXvUGdgny_-46" value="" style="line;strokeWidth=1;fillColor=none;align=left;verticalAlign=middle;spacingTop=-1;spacingLeft=3;spacingRight=3;rotatable=0;labelPosition=right;points=[];portConstraint=eastwest;strokeColor=#FFE599;" vertex="1" parent="tXUEc1l4zNeXvUGdgny_-44">
          <mxGeometry y="52" width="205" height="8" as="geometry" />
        </mxCell>
        <mxCell id="tXUEc1l4zNeXvUGdgny_-47" value="&lt;div&gt;menu()&lt;/div&gt;" style="text;strokeColor=#FFE599;fillColor=none;align=left;verticalAlign=top;spacingLeft=4;spacingRight=4;overflow=hidden;rotatable=0;points=[[0,0.5],[1,0.5]];portConstraint=eastwest;whiteSpace=wrap;html=1;" vertex="1" parent="tXUEc1l4zNeXvUGdgny_-44">
          <mxGeometry y="60" width="205" height="26" as="geometry" />
        </mxCell>
        <mxCell id="tXUEc1l4zNeXvUGdgny_-48" value="&lt;span style=&quot;font-weight: 400;&quot;&gt;MenuComprador&lt;/span&gt;" style="swimlane;fontStyle=1;align=center;verticalAlign=top;childLayout=stackLayout;horizontal=1;startSize=26;horizontalStack=0;resizeParent=1;resizeParentMax=0;resizeLast=0;collapsible=1;marginBottom=0;whiteSpace=wrap;html=1;fillColor=#FFE599;strokeColor=#FFE599;" vertex="1" parent="WIyWlLk6GJQsqaUBKTNV-1">
          <mxGeometry x="1065" y="-1286" width="205" height="86" as="geometry" />
        </mxCell>
        <mxCell id="tXUEc1l4zNeXvUGdgny_-49" value="scanner: (Scanner)" style="text;align=left;verticalAlign=top;spacingLeft=4;spacingRight=4;overflow=hidden;rotatable=0;points=[[0,0.5],[1,0.5]];portConstraint=eastwest;whiteSpace=wrap;html=1;strokeColor=#FFE599;" vertex="1" parent="tXUEc1l4zNeXvUGdgny_-48">
          <mxGeometry y="26" width="205" height="26" as="geometry" />
        </mxCell>
        <mxCell id="tXUEc1l4zNeXvUGdgny_-50" value="" style="line;strokeWidth=1;fillColor=none;align=left;verticalAlign=middle;spacingTop=-1;spacingLeft=3;spacingRight=3;rotatable=0;labelPosition=right;points=[];portConstraint=eastwest;strokeColor=#FFE599;" vertex="1" parent="tXUEc1l4zNeXvUGdgny_-48">
          <mxGeometry y="52" width="205" height="8" as="geometry" />
        </mxCell>
        <mxCell id="tXUEc1l4zNeXvUGdgny_-51" value="&lt;div&gt;menu()&lt;/div&gt;" style="text;strokeColor=#FFE599;fillColor=none;align=left;verticalAlign=top;spacingLeft=4;spacingRight=4;overflow=hidden;rotatable=0;points=[[0,0.5],[1,0.5]];portConstraint=eastwest;whiteSpace=wrap;html=1;" vertex="1" parent="tXUEc1l4zNeXvUGdgny_-48">
          <mxGeometry y="60" width="205" height="26" as="geometry" />
        </mxCell>
        <mxCell id="tXUEc1l4zNeXvUGdgny_-52" value="&lt;span style=&quot;font-weight: 400;&quot;&gt;MenuCajero&lt;/span&gt;" style="swimlane;fontStyle=1;align=center;verticalAlign=top;childLayout=stackLayout;horizontal=1;startSize=26;horizontalStack=0;resizeParent=1;resizeParentMax=0;resizeLast=0;collapsible=1;marginBottom=0;whiteSpace=wrap;html=1;fillColor=#FFE599;strokeColor=#FFE599;" vertex="1" parent="WIyWlLk6GJQsqaUBKTNV-1">
          <mxGeometry x="630" y="-1150" width="205" height="86" as="geometry" />
        </mxCell>
        <mxCell id="tXUEc1l4zNeXvUGdgny_-53" value="scanner: (Scanner)" style="text;align=left;verticalAlign=top;spacingLeft=4;spacingRight=4;overflow=hidden;rotatable=0;points=[[0,0.5],[1,0.5]];portConstraint=eastwest;whiteSpace=wrap;html=1;strokeColor=#FFE599;" vertex="1" parent="tXUEc1l4zNeXvUGdgny_-52">
          <mxGeometry y="26" width="205" height="26" as="geometry" />
        </mxCell>
        <mxCell id="tXUEc1l4zNeXvUGdgny_-54" value="" style="line;strokeWidth=1;fillColor=none;align=left;verticalAlign=middle;spacingTop=-1;spacingLeft=3;spacingRight=3;rotatable=0;labelPosition=right;points=[];portConstraint=eastwest;strokeColor=#FFE599;" vertex="1" parent="tXUEc1l4zNeXvUGdgny_-52">
          <mxGeometry y="52" width="205" height="8" as="geometry" />
        </mxCell>
        <mxCell id="tXUEc1l4zNeXvUGdgny_-55" value="&lt;div&gt;menu()&lt;/div&gt;" style="text;strokeColor=#FFE599;fillColor=none;align=left;verticalAlign=top;spacingLeft=4;spacingRight=4;overflow=hidden;rotatable=0;points=[[0,0.5],[1,0.5]];portConstraint=eastwest;whiteSpace=wrap;html=1;" vertex="1" parent="tXUEc1l4zNeXvUGdgny_-52">
          <mxGeometry y="60" width="205" height="26" as="geometry" />
        </mxCell>
        <mxCell id="tXUEc1l4zNeXvUGdgny_-56" value="&lt;span style=&quot;font-weight: 400;&quot;&gt;MenuAdministrador&lt;/span&gt;" style="swimlane;fontStyle=1;align=center;verticalAlign=top;childLayout=stackLayout;horizontal=1;startSize=26;horizontalStack=0;resizeParent=1;resizeParentMax=0;resizeLast=0;collapsible=1;marginBottom=0;whiteSpace=wrap;html=1;fillColor=#FFE599;strokeColor=#FFE599;" vertex="1" parent="WIyWlLk6GJQsqaUBKTNV-1">
          <mxGeometry x="860" y="-1450" width="205" height="86" as="geometry" />
        </mxCell>
        <mxCell id="tXUEc1l4zNeXvUGdgny_-57" value="scanner: (Scanner)" style="text;align=left;verticalAlign=top;spacingLeft=4;spacingRight=4;overflow=hidden;rotatable=0;points=[[0,0.5],[1,0.5]];portConstraint=eastwest;whiteSpace=wrap;html=1;strokeColor=#FFE599;" vertex="1" parent="tXUEc1l4zNeXvUGdgny_-56">
          <mxGeometry y="26" width="205" height="26" as="geometry" />
        </mxCell>
        <mxCell id="tXUEc1l4zNeXvUGdgny_-58" value="" style="line;strokeWidth=1;fillColor=none;align=left;verticalAlign=middle;spacingTop=-1;spacingLeft=3;spacingRight=3;rotatable=0;labelPosition=right;points=[];portConstraint=eastwest;strokeColor=#FFE599;" vertex="1" parent="tXUEc1l4zNeXvUGdgny_-56">
          <mxGeometry y="52" width="205" height="8" as="geometry" />
        </mxCell>
        <mxCell id="tXUEc1l4zNeXvUGdgny_-59" value="&lt;div&gt;menu()&lt;/div&gt;" style="text;strokeColor=#FFE599;fillColor=none;align=left;verticalAlign=top;spacingLeft=4;spacingRight=4;overflow=hidden;rotatable=0;points=[[0,0.5],[1,0.5]];portConstraint=eastwest;whiteSpace=wrap;html=1;" vertex="1" parent="tXUEc1l4zNeXvUGdgny_-56">
          <mxGeometry y="60" width="205" height="26" as="geometry" />
        </mxCell>
        <mxCell id="tXUEc1l4zNeXvUGdgny_-60" value="&lt;span style=&quot;font-weight: 400;&quot;&gt;MenuPropietario&lt;/span&gt;" style="swimlane;fontStyle=1;align=center;verticalAlign=top;childLayout=stackLayout;horizontal=1;startSize=26;horizontalStack=0;resizeParent=1;resizeParentMax=0;resizeLast=0;collapsible=1;marginBottom=0;whiteSpace=wrap;html=1;fillColor=#FFE599;strokeColor=#FFE599;" vertex="1" parent="WIyWlLk6GJQsqaUBKTNV-1">
          <mxGeometry x="630" y="-1286" width="205" height="86" as="geometry" />
        </mxCell>
        <mxCell id="tXUEc1l4zNeXvUGdgny_-61" value="scanner: (Scanner)" style="text;align=left;verticalAlign=top;spacingLeft=4;spacingRight=4;overflow=hidden;rotatable=0;points=[[0,0.5],[1,0.5]];portConstraint=eastwest;whiteSpace=wrap;html=1;strokeColor=#FFE599;" vertex="1" parent="tXUEc1l4zNeXvUGdgny_-60">
          <mxGeometry y="26" width="205" height="26" as="geometry" />
        </mxCell>
        <mxCell id="tXUEc1l4zNeXvUGdgny_-62" value="" style="line;strokeWidth=1;fillColor=none;align=left;verticalAlign=middle;spacingTop=-1;spacingLeft=3;spacingRight=3;rotatable=0;labelPosition=right;points=[];portConstraint=eastwest;strokeColor=#FFE599;" vertex="1" parent="tXUEc1l4zNeXvUGdgny_-60">
          <mxGeometry y="52" width="205" height="8" as="geometry" />
        </mxCell>
        <mxCell id="tXUEc1l4zNeXvUGdgny_-63" value="&lt;div&gt;menu()&lt;/div&gt;" style="text;strokeColor=#FFE599;fillColor=none;align=left;verticalAlign=top;spacingLeft=4;spacingRight=4;overflow=hidden;rotatable=0;points=[[0,0.5],[1,0.5]];portConstraint=eastwest;whiteSpace=wrap;html=1;" vertex="1" parent="tXUEc1l4zNeXvUGdgny_-60">
          <mxGeometry y="60" width="205" height="26" as="geometry" />
        </mxCell>
        <mxCell id="tXUEc1l4zNeXvUGdgny_-79" value="" style="endArrow=diamondThin;endFill=0;endSize=24;html=1;rounded=0;strokeColor=#FFE599;edgeStyle=elbowEdgeStyle;elbow=vertical;fillColor=#fff2cc;" edge="1" parent="WIyWlLk6GJQsqaUBKTNV-1" source="tXUEc1l4zNeXvUGdgny_-56" target="T9J1k0kJC5R4wE0G7LZG-4">
          <mxGeometry width="160" relative="1" as="geometry">
            <mxPoint x="1330" y="-317" as="sourcePoint" />
            <mxPoint x="1350" y="-497" as="targetPoint" />
            <Array as="points">
              <mxPoint x="1350" y="-1000" />
            </Array>
          </mxGeometry>
        </mxCell>
        <mxCell id="tXUEc1l4zNeXvUGdgny_-80" value="1" style="edgeLabel;html=1;align=center;verticalAlign=middle;resizable=0;points=[];" vertex="1" connectable="0" parent="tXUEc1l4zNeXvUGdgny_-79">
          <mxGeometry x="0.6576" relative="1" as="geometry">
            <mxPoint x="-70" y="88" as="offset" />
          </mxGeometry>
        </mxCell>
        <mxCell id="tXUEc1l4zNeXvUGdgny_-82" value="" style="endArrow=diamondThin;endFill=0;endSize=24;html=1;rounded=0;strokeColor=#FFE599;edgeStyle=elbowEdgeStyle;elbow=vertical;fillColor=#fff2cc;" edge="1" parent="WIyWlLk6GJQsqaUBKTNV-1" source="tXUEc1l4zNeXvUGdgny_-56" target="T9J1k0kJC5R4wE0G7LZG-16">
          <mxGeometry width="160" relative="1" as="geometry">
            <mxPoint x="960" y="-1350" as="sourcePoint" />
            <mxPoint x="1120" y="-514" as="targetPoint" />
            <Array as="points">
              <mxPoint x="1350" y="-930" />
            </Array>
          </mxGeometry>
        </mxCell>
        <mxCell id="tXUEc1l4zNeXvUGdgny_-83" value="1" style="edgeLabel;html=1;align=center;verticalAlign=middle;resizable=0;points=[];" vertex="1" connectable="0" parent="tXUEc1l4zNeXvUGdgny_-82">
          <mxGeometry x="0.6576" relative="1" as="geometry">
            <mxPoint x="-60" y="62" as="offset" />
          </mxGeometry>
        </mxCell>
        <mxCell id="tXUEc1l4zNeXvUGdgny_-84" value="1" style="edgeLabel;html=1;align=center;verticalAlign=middle;resizable=0;points=[];" vertex="1" connectable="0" parent="tXUEc1l4zNeXvUGdgny_-82">
          <mxGeometry x="-0.8506" y="-3" relative="1" as="geometry">
            <mxPoint x="-64" as="offset" />
          </mxGeometry>
        </mxCell>
        <mxCell id="tXUEc1l4zNeXvUGdgny_-85" value="" style="endArrow=diamondThin;endFill=0;endSize=24;html=1;rounded=0;strokeColor=#FFE599;edgeStyle=elbowEdgeStyle;elbow=vertical;fillColor=#fff2cc;" edge="1" parent="WIyWlLk6GJQsqaUBKTNV-1" source="tXUEc1l4zNeXvUGdgny_-56" target="T9J1k0kJC5R4wE0G7LZG-20">
          <mxGeometry width="160" relative="1" as="geometry">
            <mxPoint x="950" y="-1296" as="sourcePoint" />
            <mxPoint x="1110" y="-460" as="targetPoint" />
            <Array as="points">
              <mxPoint x="1350" y="-420" />
            </Array>
          </mxGeometry>
        </mxCell>
        <mxCell id="tXUEc1l4zNeXvUGdgny_-86" value="1" style="edgeLabel;html=1;align=center;verticalAlign=middle;resizable=0;points=[];" vertex="1" connectable="0" parent="tXUEc1l4zNeXvUGdgny_-85">
          <mxGeometry x="0.6576" relative="1" as="geometry">
            <mxPoint x="-70" y="113" as="offset" />
          </mxGeometry>
        </mxCell>
        <mxCell id="tXUEc1l4zNeXvUGdgny_-93" value="" style="endArrow=diamondThin;endFill=0;endSize=24;html=1;rounded=0;strokeColor=#FFE599;edgeStyle=elbowEdgeStyle;elbow=vertical;fillColor=#fff2cc;" edge="1" parent="WIyWlLk6GJQsqaUBKTNV-1" source="tXUEc1l4zNeXvUGdgny_-56" target="T9J1k0kJC5R4wE0G7LZG-8">
          <mxGeometry width="160" relative="1" as="geometry">
            <mxPoint x="1030" y="-1354" as="sourcePoint" />
            <mxPoint x="1160" y="-830" as="targetPoint" />
            <Array as="points">
              <mxPoint x="1350" y="-270" />
            </Array>
          </mxGeometry>
        </mxCell>
        <mxCell id="tXUEc1l4zNeXvUGdgny_-94" value="1" style="edgeLabel;html=1;align=center;verticalAlign=middle;resizable=0;points=[];" vertex="1" connectable="0" parent="tXUEc1l4zNeXvUGdgny_-93">
          <mxGeometry x="0.6576" relative="1" as="geometry">
            <mxPoint x="-60" y="138" as="offset" />
          </mxGeometry>
        </mxCell>
        <mxCell id="tXUEc1l4zNeXvUGdgny_-96" value="" style="endArrow=diamondThin;endFill=0;endSize=24;html=1;rounded=0;strokeColor=#FFE599;edgeStyle=elbowEdgeStyle;elbow=vertical;fillColor=#fff2cc;" edge="1" parent="WIyWlLk6GJQsqaUBKTNV-1" source="tXUEc1l4zNeXvUGdgny_-56" target="T9J1k0kJC5R4wE0G7LZG-12">
          <mxGeometry width="160" relative="1" as="geometry">
            <mxPoint x="890" y="-1353" as="sourcePoint" />
            <mxPoint x="1020" y="-829" as="targetPoint" />
            <Array as="points">
              <mxPoint x="1350" y="-68" />
            </Array>
          </mxGeometry>
        </mxCell>
        <mxCell id="tXUEc1l4zNeXvUGdgny_-97" value="1" style="edgeLabel;html=1;align=center;verticalAlign=middle;resizable=0;points=[];" vertex="1" connectable="0" parent="tXUEc1l4zNeXvUGdgny_-96">
          <mxGeometry x="0.6576" relative="1" as="geometry">
            <mxPoint x="-60" y="173" as="offset" />
          </mxGeometry>
        </mxCell>
        <mxCell id="tXUEc1l4zNeXvUGdgny_-99" value="1" style="edgeLabel;html=1;align=center;verticalAlign=middle;resizable=0;points=[];" vertex="1" connectable="0" parent="tXUEc1l4zNeXvUGdgny_-96">
          <mxGeometry x="-0.9811" y="-4" relative="1" as="geometry">
            <mxPoint as="offset" />
          </mxGeometry>
        </mxCell>
        <mxCell id="tXUEc1l4zNeXvUGdgny_-101" value="" style="endArrow=diamondThin;endFill=1;endSize=24;html=1;rounded=0;fillColor=#fff2cc;strokeColor=#FFE599;edgeStyle=elbowEdgeStyle;" edge="1" parent="WIyWlLk6GJQsqaUBKTNV-1" source="yHp5LiDb8gGWvMPch4RD-53" target="tXUEc1l4zNeXvUGdgny_-56">
          <mxGeometry width="160" relative="1" as="geometry">
            <mxPoint x="450" y="-865" as="sourcePoint" />
            <mxPoint x="607" y="-1220" as="targetPoint" />
            <Array as="points">
              <mxPoint x="320" y="-900" />
            </Array>
          </mxGeometry>
        </mxCell>
        <mxCell id="tXUEc1l4zNeXvUGdgny_-107" value="1" style="edgeLabel;html=1;align=center;verticalAlign=middle;resizable=0;points=[];" vertex="1" connectable="0" parent="tXUEc1l4zNeXvUGdgny_-101">
          <mxGeometry x="-0.9533" relative="1" as="geometry">
            <mxPoint as="offset" />
          </mxGeometry>
        </mxCell>
        <mxCell id="tXUEc1l4zNeXvUGdgny_-108" value="1" style="edgeLabel;html=1;align=center;verticalAlign=middle;resizable=0;points=[];" vertex="1" connectable="0" parent="tXUEc1l4zNeXvUGdgny_-101">
          <mxGeometry x="0.9446" relative="1" as="geometry">
            <mxPoint x="1" as="offset" />
          </mxGeometry>
        </mxCell>
        <mxCell id="tXUEc1l4zNeXvUGdgny_-104" value="" style="endArrow=diamondThin;endFill=1;endSize=24;html=1;rounded=0;fillColor=#fff2cc;strokeColor=#FFE599;edgeStyle=elbowEdgeStyle;" edge="1" parent="WIyWlLk6GJQsqaUBKTNV-1" source="yHp5LiDb8gGWvMPch4RD-71" target="tXUEc1l4zNeXvUGdgny_-60">
          <mxGeometry width="160" relative="1" as="geometry">
            <mxPoint x="-60" y="-890" as="sourcePoint" />
            <mxPoint x="870" y="-1397" as="targetPoint" />
            <Array as="points">
              <mxPoint x="280" y="-1240" />
            </Array>
          </mxGeometry>
        </mxCell>
        <mxCell id="tXUEc1l4zNeXvUGdgny_-105" value="1" style="edgeLabel;html=1;align=center;verticalAlign=middle;resizable=0;points=[];" vertex="1" connectable="0" parent="tXUEc1l4zNeXvUGdgny_-104">
          <mxGeometry x="0.8967" y="-1" relative="1" as="geometry">
            <mxPoint as="offset" />
          </mxGeometry>
        </mxCell>
        <mxCell id="tXUEc1l4zNeXvUGdgny_-106" value="1" style="edgeLabel;html=1;align=center;verticalAlign=middle;resizable=0;points=[];" vertex="1" connectable="0" parent="tXUEc1l4zNeXvUGdgny_-104">
          <mxGeometry x="-0.8017" y="-2" relative="1" as="geometry">
            <mxPoint as="offset" />
          </mxGeometry>
        </mxCell>
        <mxCell id="tXUEc1l4zNeXvUGdgny_-109" value="" style="endArrow=diamondThin;endFill=1;endSize=24;html=1;rounded=0;fillColor=#fff2cc;strokeColor=#FFE599;edgeStyle=elbowEdgeStyle;" edge="1" parent="WIyWlLk6GJQsqaUBKTNV-1" source="T9J1k0kJC5R4wE0G7LZG-25" target="tXUEc1l4zNeXvUGdgny_-52">
          <mxGeometry width="160" relative="1" as="geometry">
            <mxPoint x="127" y="-919" as="sourcePoint" />
            <mxPoint x="627" y="-1060" as="targetPoint" />
            <Array as="points">
              <mxPoint x="550" y="-1090" />
            </Array>
          </mxGeometry>
        </mxCell>
        <mxCell id="tXUEc1l4zNeXvUGdgny_-110" value="1" style="edgeLabel;html=1;align=center;verticalAlign=middle;resizable=0;points=[];" vertex="1" connectable="0" parent="tXUEc1l4zNeXvUGdgny_-109">
          <mxGeometry x="0.8967" y="-1" relative="1" as="geometry">
            <mxPoint x="-13" as="offset" />
          </mxGeometry>
        </mxCell>
        <mxCell id="tXUEc1l4zNeXvUGdgny_-111" value="1" style="edgeLabel;html=1;align=center;verticalAlign=middle;resizable=0;points=[];" vertex="1" connectable="0" parent="tXUEc1l4zNeXvUGdgny_-109">
          <mxGeometry x="-0.8017" y="-2" relative="1" as="geometry">
            <mxPoint as="offset" />
          </mxGeometry>
        </mxCell>
        <mxCell id="tXUEc1l4zNeXvUGdgny_-112" value="" style="endArrow=diamondThin;endFill=1;endSize=24;html=1;rounded=0;fillColor=#fff2cc;strokeColor=#FFE599;edgeStyle=elbowEdgeStyle;" edge="1" parent="WIyWlLk6GJQsqaUBKTNV-1" source="T9J1k0kJC5R4wE0G7LZG-34" target="tXUEc1l4zNeXvUGdgny_-44">
          <mxGeometry width="160" relative="1" as="geometry">
            <mxPoint x="540" y="-919" as="sourcePoint" />
            <mxPoint x="1040" y="-1060" as="targetPoint" />
            <Array as="points">
              <mxPoint x="210" y="-960" />
            </Array>
          </mxGeometry>
        </mxCell>
        <mxCell id="tXUEc1l4zNeXvUGdgny_-113" value="1" style="edgeLabel;html=1;align=center;verticalAlign=middle;resizable=0;points=[];" vertex="1" connectable="0" parent="tXUEc1l4zNeXvUGdgny_-112">
          <mxGeometry x="0.8967" y="-1" relative="1" as="geometry">
            <mxPoint as="offset" />
          </mxGeometry>
        </mxCell>
        <mxCell id="tXUEc1l4zNeXvUGdgny_-114" value="1" style="edgeLabel;html=1;align=center;verticalAlign=middle;resizable=0;points=[];" vertex="1" connectable="0" parent="tXUEc1l4zNeXvUGdgny_-112">
          <mxGeometry x="-0.8017" y="-2" relative="1" as="geometry">
            <mxPoint as="offset" />
          </mxGeometry>
        </mxCell>
        <mxCell id="tXUEc1l4zNeXvUGdgny_-115" value="" style="endArrow=diamondThin;endFill=1;endSize=24;html=1;rounded=0;fillColor=#fff2cc;strokeColor=#FFE599;edgeStyle=elbowEdgeStyle;" edge="1" parent="WIyWlLk6GJQsqaUBKTNV-1" source="yHp5LiDb8gGWvMPch4RD-59" target="tXUEc1l4zNeXvUGdgny_-48">
          <mxGeometry width="160" relative="1" as="geometry">
            <mxPoint x="480" y="-762.0000000000005" as="sourcePoint" />
            <mxPoint x="1065" y="-1310" as="targetPoint" />
            <Array as="points">
              <mxPoint x="860" y="-760" />
            </Array>
          </mxGeometry>
        </mxCell>
        <mxCell id="tXUEc1l4zNeXvUGdgny_-116" value="1" style="edgeLabel;html=1;align=center;verticalAlign=middle;resizable=0;points=[];" vertex="1" connectable="0" parent="tXUEc1l4zNeXvUGdgny_-115">
          <mxGeometry x="0.8967" y="-1" relative="1" as="geometry">
            <mxPoint as="offset" />
          </mxGeometry>
        </mxCell>
        <mxCell id="tXUEc1l4zNeXvUGdgny_-117" value="1" style="edgeLabel;html=1;align=center;verticalAlign=middle;resizable=0;points=[];" vertex="1" connectable="0" parent="tXUEc1l4zNeXvUGdgny_-115">
          <mxGeometry x="-0.8017" y="-2" relative="1" as="geometry">
            <mxPoint x="-76" as="offset" />
          </mxGeometry>
        </mxCell>
      </root>
    </mxGraphModel>
  </diagram>
</mxfile>
